<svg width="1200" height="780" viewBox="0 0 1200 780" fill="none" xmlns="http://www.w3.org/2000/svg">
<path d="M1154.77 110.561L1156.84 102.064C1163.33 53.4482 1118.81 13.4187 1070.72 24.6362L490.412 133.292C491.013 131.231 491.573 129.401 492.095 127.889C493.869 122.742 495.012 117.572 495.603 112.443C495.93 110.955 496.201 109.451 496.367 107.917C496.845 103.463 496.413 98.9598 495.301 94.6104C493.03 79.8924 485.72 66.3225 473.845 55.729C474.116 53.5709 474.178 51.5381 473.953 49.7022C469.537 13.6105 430.571 2.99139 400.276 0.454834C384.996 -0.826172 368.874 0.513733 354.269 5.56116C339.829 10.5499 326.868 19.1617 317.663 32.4426C310.071 43.3992 309.066 58.8076 312.04 73.2187C311.501 73.9142 310.941 74.5892 310.411 75.3052C295.353 95.6689 289.068 121.274 292.172 147.716L153.354 154.515C119.75 154.515 92.617 178.384 86.4473 208.927L54.4872 214.913C10.0856 225.267 -12.9152 274.087 7.53575 314.561L148.774 589.444L172.427 723.71C178.138 756.125 206.489 779.779 239.637 779.779H246.242H289.805H365.22H418.045H537.023H936.197H998.053C1028.03 779.779 1054.5 760.354 1063.28 731.898L1196.96 194.207C1208.01 158.407 1187.8 122.287 1154.77 110.561Z" fill="#B721FF" fill-opacity="0.4"/>
<path d="M930.094 779.779H300.933C274.941 779.779 251.174 765.113 239.522 741.88L26.191 323.702C6.2865 284.021 28.6731 236.162 71.8908 226.008L1061.03 39.4692C1107.84 28.4742 1151.17 67.7136 1144.86 115.376L998.207 720.092C993.684 754.253 964.555 779.779 930.094 779.779Z" fill="#2AF598"/>
<path d="M252.102 779.779H990.303C1019.48 779.779 1045.24 760.733 1053.8 732.839L1183.9 205.711C1196.99 163.017 1165.06 119.83 1120.41 119.83L168.122 166.796C126.869 166.796 95.5965 204.01 102.704 244.648L186.686 724.81C192.244 756.59 219.838 779.779 252.102 779.779Z" fill="#21D4FD"/>
<path d="M422.729 209.413L400.031 218.807L377.33 209.413L360.759 328.56L400.031 375.534L439.281 329.117L422.729 209.413Z" fill="#F2B378"/>
<path d="M363.679 20.7671C377.895 15.8219 393.587 14.5076 408.461 15.763C437.951 18.251 475.873 28.6604 480.174 64.0413C481.831 77.6827 468.264 101.959 460.457 113.122C442.955 138.158 422.729 145.997 392.751 144.716C368.135 143.66 348.779 134.609 333.823 113.902C321.463 96.7884 315.388 65.5294 328.052 47.1243C337.012 34.1016 349.625 25.6585 363.679 20.7671Z" fill="#AB591E"/>
<path d="M497.833 140.697C513.31 95.4996 481.898 48.3004 415.498 48.3004C395.551 48.3004 378.65 53.4834 365.213 62.3689C331.077 74.6705 308.016 90.1376 310.376 147.825C312.503 199.839 350.59 257.139 398.361 257.139C410.545 257.139 422.292 252.828 433.039 245.64C475.255 247.348 490.405 162.382 497.833 140.697Z" fill="#BC6B1F"/>
<path d="M309.246 188.76C305.42 190.967 304.009 196.015 304.766 200.367C305.523 204.721 307.993 208.554 310.409 212.251C314.183 218.025 317.955 223.801 321.729 229.575C322.572 230.866 323.603 232.28 325.132 232.485C327.221 232.761 328.796 230.662 329.694 228.757C333.693 220.278 334.933 208.93 329.988 200.676C326.237 194.414 317.474 184.017 309.246 188.76Z" fill="#FBCB94"/>
<path d="M490.811 188.76C494.641 190.967 496.05 196.015 495.293 200.367C494.537 204.721 492.067 208.554 489.648 212.251C485.876 218.025 482.105 223.801 478.33 229.575C477.487 230.866 476.456 232.28 474.927 232.485C472.838 232.761 471.263 230.662 470.366 228.757C466.364 220.278 465.126 208.93 470.071 200.676C473.82 194.414 482.585 184.017 490.811 188.76Z" fill="#FBCB94"/>
<path d="M481.8 119.316L400.031 117.045L318.259 119.316C318.259 119.316 314.853 170.424 325.073 221.531C331.02 251.263 355.417 276.766 374.786 292.901C389.396 305.072 410.663 305.072 425.276 292.901C444.642 276.766 469.038 251.263 474.986 221.531C485.209 170.424 481.8 119.316 481.8 119.316Z" fill="#FBCB94"/>
<path d="M350.804 119.3C366.709 132.742 382.812 146.317 401.46 155.581C420.111 164.845 441.853 169.511 461.971 164.139C482.089 158.767 499.779 141.819 501.99 121.115C504.202 100.409 487.428 78.4165 466.607 78.575C453.147 78.6773 441.349 86.9159 429.209 92.7305C403.45 105.076 372.822 106.865 345.8 97.6092C345.57 104.129 345.821 115.089 350.804 119.3Z" fill="#BC6B1F"/>
<path d="M327.198 143.277C316.572 158.2 322.821 190.507 323.486 214.619C316.311 195.475 307.297 144.602 313.595 125.151C319.891 105.7 335.923 94.94 355.865 90.4295C375.806 85.9165 400.589 100.159 408.441 119.034C376.704 116.618 348.897 116.153 327.198 143.277Z" fill="#BC6B1F"/>
<path d="M471.964 143.277C482.591 158.199 476.809 191.445 476.145 215.56C483.319 196.413 491.865 144.602 485.567 125.151C479.272 105.7 463.24 94.94 443.298 90.4295C423.356 85.9164 398.574 100.159 390.721 119.034C422.458 116.618 450.263 116.153 471.964 143.277Z" fill="#BC6B1F"/>
<path d="M345.378 174.873C352.847 170.401 361.068 170.015 369.071 173.319C374.558 175.584 376.952 166.655 371.526 164.415C361.4 160.235 350.073 161.298 340.717 166.901C335.626 169.951 340.264 177.939 345.378 174.873Z" fill="#BF6A1D"/>
<path d="M461.327 166.901C451.971 161.296 440.646 160.235 430.518 164.415C425.102 166.65 427.475 175.589 432.972 173.319C440.971 170.018 449.189 170.396 456.665 174.873C461.777 177.934 466.425 169.954 461.327 166.901Z" fill="#BF6A1D"/>
<path d="M361.362 207.991C373.247 207.991 373.267 189.522 361.362 189.522C349.479 189.522 349.459 207.991 361.362 207.991Z" fill="#BF6A1D"/>
<path d="M439.672 207.991C451.557 207.991 451.577 189.522 439.672 189.522C427.79 189.522 427.769 207.991 439.672 207.991Z" fill="#BF6A1D"/>
<path d="M407.024 216.235C408.193 219.467 409.561 222.814 409.111 226.22C408.661 229.628 405.557 232.962 402.197 232.244C405.038 234.811 409.921 233.893 412.427 231.001C414.933 228.107 415.391 223.893 414.665 220.134C413.936 216.375 412.177 212.913 410.653 209.403C404.969 196.285 403.307 182.848 403.168 168.703C399.259 172.996 401.128 185.807 401.583 191.279C402.294 199.788 404.115 208.206 407.024 216.235Z" fill="#F2B378"/>
<path d="M376.223 255.768C378.593 265.994 388.417 280.632 400.187 280.632C411.957 280.632 421.778 265.994 424.151 255.768C416.685 258.318 408.612 259.714 400.187 259.714C391.762 259.714 383.69 258.318 376.223 255.768Z" fill="#BC6B1F"/>
<path d="M314.651 210.513L307.233 179.747C297.642 147.138 302.654 114.122 320.992 89.1434C338.352 65.4991 363.661 51.9369 390.432 51.9369V60.9656C366.568 60.9656 343.91 73.1828 328.272 94.485C311.595 117.199 307.095 147.384 315.924 177.3L315.983 177.523L323.432 208.396L314.651 210.513Z" fill="#4D4136"/>
<path d="M409.96 48.4952C409.96 48.4952 367.55 50.6354 353.295 73.4436C339.039 96.2518 391.785 99.8162 391.785 99.8162L409.96 48.4952Z" fill="#BC6B1F"/>
<path d="M367.609 255.285C363.492 254.559 359.746 256.027 358.667 258.607C350.081 257.277 338.313 254.63 334.882 249.823C331.335 244.86 327.625 236.404 325.304 230.659C332.036 228.204 336.033 218.615 334.376 207.999C332.568 196.429 324.746 188.042 316.899 189.264C309.054 190.489 304.157 200.862 305.963 212.43C307.742 223.824 315.354 232.109 323.076 231.193C325.419 237.028 329.262 245.84 333.041 251.135C336.956 256.615 349.472 259.476 358.432 260.864C358.912 263.444 361.799 265.804 365.64 266.482C370.189 267.28 374.313 265.423 374.858 262.329C375.402 259.238 372.158 256.083 367.609 255.285Z" fill="#4D4136"/>
<path d="M365.082 255.129C362.356 255.237 360.078 256.316 359.017 258.001C359.636 258.105 360.244 258.203 360.837 258.295C361.474 256.773 363.057 255.653 365.082 255.129Z" fill="#4D4136"/>
<path d="M308.136 212.121C306.397 200.998 310.864 191.005 318.185 189.162C317.758 189.172 317.328 189.2 316.899 189.264C309.054 190.489 304.157 200.863 305.963 212.43C307.742 223.824 315.354 232.109 323.076 231.193L325.247 230.884C317.525 231.799 309.911 223.515 308.136 212.121Z" fill="#63564A"/>
<path d="M320.992 89.1431C302.654 114.122 297.642 147.138 307.233 179.747L310.652 193.925C311.074 193.46 311.516 193.007 311.984 192.578L309.343 181.624C299.752 149.012 304.763 115.999 323.102 91.0173C339.929 68.0992 364.555 53.1945 390.432 52.297V51.9365C363.661 51.9365 338.352 65.4987 320.992 89.1431Z" fill="#63564A"/>
<path d="M437.376 314.509L422.018 341.695C412.35 358.804 387.706 358.804 378.041 341.695L362.686 314.509L348.477 326.422V779.203H400.031H451.582V326.422L437.376 314.509Z" fill="white"/>
<path d="M431.474 650.535L417.981 655.298L393.774 656.487L371.155 668.791L363.615 677.521L356.47 683.077L358.058 695.778L355.678 705.699L358.058 717.208L366.79 723.953L402.107 725.937L442.188 704.111L431.474 650.535Z" fill="#DF9C63"/>
<path d="M437.376 314.51L425.757 471.784V779.779H541.565C541.565 779.779 530.475 675.061 493.517 609.766C493.517 609.766 503.374 436.056 551.419 351.049L437.376 314.51Z" fill="#3A4F75"/>
<path d="M437.376 314.51L425.757 471.784V636.87C425.757 636.87 447.933 528.454 476.267 485.336L455.326 465.625L500.909 335.035L437.376 314.51Z" fill="#4B70A0"/>
<path d="M551.419 351.049L536.302 379.873C520.209 419.997 509.086 479.084 503.933 510.397L508.301 556.79L419.597 643.03L424.527 732.963L555.165 617.823C564.963 609.185 571.455 597.377 573.404 584.462C593.941 448.408 551.419 351.049 551.419 351.049Z" fill="#344C6F"/>
<path d="M362.722 314.51L374.339 471.784V779.779H258.533C258.533 779.779 269.62 675.061 306.579 609.766C306.579 609.766 296.724 436.056 248.676 351.049L362.722 314.51Z" fill="#3A4F75"/>
<path d="M362.722 314.51L374.338 471.784V636.87C374.338 636.87 352.162 528.454 323.828 485.336L344.772 465.625L299.189 335.035L362.722 314.51Z" fill="#4B70A0"/>
<path d="M374.735 650.535L388.228 655.298L412.435 656.487L435.056 668.791L442.597 677.521L449.738 683.077L448.151 695.778L450.534 705.699L448.151 717.208L439.421 723.953L404.102 725.937L364.021 704.111L374.735 650.535Z" fill="#F2B378"/>
<path d="M248.676 351.049L263.793 379.873C279.889 419.997 291.009 479.084 296.161 510.397L291.794 556.79L380.498 643.03L375.571 732.963L244.93 617.823C235.131 609.185 228.639 597.377 226.691 584.462C206.152 448.408 248.676 351.049 248.676 351.049Z" fill="#344C6F"/>
<path d="M588.022 302.753C585.278 304.176 582.418 305.25 579.441 305.975C576.464 306.7 573.358 307.062 570.122 307.062C560.467 307.062 552.818 304.37 547.175 298.986C541.532 293.576 538.71 286.251 538.71 277.01C538.71 267.743 541.532 260.417 547.175 255.033C552.818 249.623 560.467 246.918 570.122 246.918C573.358 246.918 576.464 247.281 579.441 248.005C582.418 248.73 585.278 249.804 588.022 251.228V263.226C585.252 261.336 582.521 259.951 579.829 259.071C577.137 258.191 574.303 257.751 571.326 257.751C565.993 257.751 561.8 259.46 558.746 262.876C555.691 266.293 554.164 271.004 554.164 277.01C554.164 282.989 555.691 287.687 558.746 291.104C561.8 294.521 565.993 296.229 571.326 296.229C574.303 296.229 577.137 295.789 579.829 294.909C582.521 294.029 585.252 292.644 588.022 290.755V302.753Z" fill="#FBFCFD"/>
<path d="M627.453 257.751C622.897 257.751 619.364 259.434 616.853 262.799C614.342 266.164 613.087 270.901 613.087 277.01C613.087 283.093 614.342 287.817 616.853 291.182C619.364 294.547 622.897 296.229 627.453 296.229C632.035 296.229 635.581 294.547 638.092 291.182C640.603 287.817 641.858 283.093 641.858 277.01C641.858 270.901 640.603 266.164 638.092 262.799C635.581 259.434 632.035 257.751 627.453 257.751ZM627.453 246.918C636.771 246.918 644.071 249.584 649.352 254.917C654.632 260.249 657.273 267.613 657.273 277.01C657.273 286.38 654.632 293.732 649.352 299.064C644.071 304.396 636.771 307.062 627.453 307.062C618.16 307.062 610.86 304.396 605.554 299.064C600.273 293.732 597.633 286.38 597.633 277.01C597.633 267.613 600.273 260.249 605.554 254.917C610.86 249.584 618.16 246.918 627.453 246.918Z" fill="#FBFCFD"/>
<path d="M669.757 247.967H686.453L707.537 287.726V247.967H721.709V305.936H705.013L683.929 266.177V305.936H669.757V247.967Z" fill="#FBFCFD"/>
<path d="M728.525 247.967H781.952V259.265H762.733V305.936H747.784V259.265H728.525V247.967Z" fill="#FBFCFD"/>
<path d="M822.701 295.375H799.326L795.638 305.936H780.611L802.083 247.967H819.905L841.377 305.936H826.35L822.701 295.375ZM803.054 284.62H818.934L811.014 261.556L803.054 284.62Z" fill="#FBFCFD"/>
<path d="M897.03 302.753C894.286 304.176 891.425 305.25 888.449 305.975C885.472 306.7 882.366 307.062 879.13 307.062C869.475 307.062 861.826 304.37 856.183 298.986C850.54 293.576 847.718 286.251 847.718 277.01C847.718 267.743 850.54 260.417 856.183 255.033C861.826 249.623 869.475 246.918 879.13 246.918C882.366 246.918 885.472 247.281 888.449 248.005C891.425 248.73 894.286 249.804 897.03 251.228V263.226C894.26 261.336 891.529 259.951 888.837 259.071C886.145 258.191 883.31 257.751 880.334 257.751C875.001 257.751 870.808 259.46 867.753 262.876C864.699 266.293 863.172 271.004 863.172 277.01C863.172 282.989 864.699 287.687 867.753 291.104C870.808 294.521 875.001 296.229 880.334 296.229C883.31 296.229 886.145 295.789 888.837 294.909C891.529 294.029 894.26 292.644 897.03 290.755V302.753Z" fill="#FBFCFD"/>
<path d="M904.262 247.967H957.689V259.265H938.47V305.936H923.521V259.265H904.262V247.967Z" fill="#FBFCFD"/>
<path d="M992.043 247.967H1006.99V282.717C1006.99 287.506 1007.77 290.936 1009.32 293.007C1010.9 295.052 1013.46 296.074 1017.01 296.074C1020.58 296.074 1023.14 295.052 1024.7 293.007C1026.28 290.936 1027.07 287.506 1027.07 282.717V247.967H1042.01V282.717C1042.01 290.923 1039.96 297.032 1035.84 301.044C1031.72 305.056 1025.45 307.062 1017.01 307.062C1008.6 307.062 1002.33 305.056 998.217 301.044C994.101 297.032 992.043 290.923 992.043 282.717V247.967Z" fill="#FBFCFD"/>
<path d="M1096.87 249.791V262.061C1093.69 260.637 1090.58 259.563 1087.56 258.838C1084.53 258.114 1081.67 257.751 1078.97 257.751C1075.4 257.751 1072.76 258.243 1071.05 259.227C1069.35 260.21 1068.49 261.737 1068.49 263.808C1068.49 265.361 1069.06 266.578 1070.2 267.458C1071.36 268.312 1073.46 269.05 1076.49 269.671L1082.86 270.953C1089.3 272.247 1093.88 274.214 1096.6 276.854C1099.32 279.495 1100.68 283.248 1100.68 288.114C1100.68 294.508 1098.78 299.271 1094.97 302.403C1091.19 305.509 1085.41 307.062 1077.62 307.062C1073.94 307.062 1070.25 306.713 1066.55 306.014C1062.85 305.315 1059.15 304.28 1055.44 302.908V290.289C1059.15 292.256 1062.72 293.745 1066.16 294.754C1069.63 295.738 1072.97 296.229 1076.18 296.229C1079.44 296.229 1081.94 295.686 1083.67 294.599C1085.41 293.512 1086.27 291.958 1086.27 289.939C1086.27 288.127 1085.68 286.73 1084.49 285.746C1083.32 284.762 1080.98 283.882 1077.46 283.106L1071.67 281.824C1065.88 280.582 1061.63 278.602 1058.94 275.884C1056.27 273.166 1054.94 269.503 1054.94 264.895C1054.94 259.123 1056.8 254.684 1060.53 251.578C1064.26 248.471 1069.62 246.918 1076.61 246.918C1079.79 246.918 1083.06 247.164 1086.43 247.656C1089.79 248.122 1093.28 248.834 1096.87 249.791Z" fill="#FBFCFD"/>
<path d="M1115.72 247.967H1129.7V270.215L1127.72 286.445H1117.7L1115.72 270.215V247.967ZM1115.72 292.114H1129.7V305.936H1115.72V292.114Z" fill="#FBFCFD"/>
<path d="M670.252 448.559H612.72V411.294H670.252V448.559Z" fill="#FBFCFD"/>
<path d="M643.472 433.849L619.319 416.937L614.512 411.9L615.982 410.429L620.716 415.388L643.434 431.274L668.919 412.258L670.126 413.961L643.472 433.849Z" fill="#B721FF"/>
<path d="M616.159 449.438L614.303 448.298L629.144 424.147L631 425.29L616.159 449.438Z" fill="#B721FF"/>
<path d="M664.361 449.438L649.517 425.29L651.374 424.147L666.214 448.298L664.361 449.438Z" fill="#B721FF"/>
<path d="M715.32 598.758C715.18 598.996 715.033 599.171 714.879 599.283C714.725 599.395 714.529 599.451 714.291 599.451C714.039 599.451 713.752 599.339 713.43 599.115C713.108 598.877 712.702 598.618 712.212 598.338C711.736 598.044 711.162 597.785 710.49 597.561C709.818 597.323 709.013 597.204 708.075 597.204C707.193 597.204 706.416 597.323 705.744 597.561C705.086 597.785 704.533 598.1 704.085 598.506C703.637 598.898 703.294 599.367 703.056 599.913C702.832 600.445 702.72 601.026 702.72 601.656C702.72 602.468 702.923 603.14 703.329 603.672C703.749 604.204 704.295 604.659 704.967 605.037C705.639 605.415 706.402 605.744 707.256 606.024C708.11 606.304 708.985 606.598 709.881 606.906C710.777 607.2 711.652 607.543 712.506 607.935C713.36 608.327 714.123 608.824 714.795 609.426C715.467 610.014 716.006 610.742 716.412 611.61C716.832 612.464 717.042 613.514 717.042 614.76C717.042 616.09 716.811 617.336 716.349 618.498C715.901 619.66 715.243 620.675 714.375 621.543C713.507 622.411 712.436 623.097 711.162 623.601C709.902 624.091 708.467 624.336 706.857 624.336C705.891 624.336 704.953 624.238 704.043 624.042C703.133 623.86 702.272 623.601 701.46 623.265C700.648 622.915 699.885 622.502 699.171 622.026C698.471 621.536 697.841 620.99 697.281 620.388L698.562 618.246C698.688 618.078 698.835 617.938 699.003 617.826C699.185 617.714 699.388 617.658 699.612 617.658C699.906 617.658 700.242 617.812 700.62 618.12C701.012 618.428 701.488 618.771 702.048 619.149C702.622 619.513 703.301 619.849 704.085 620.157C704.883 620.465 705.849 620.619 706.983 620.619C707.907 620.619 708.733 620.5 709.461 620.262C710.189 620.01 710.798 619.66 711.288 619.212C711.792 618.75 712.177 618.197 712.443 617.553C712.709 616.909 712.842 616.195 712.842 615.411C712.842 614.529 712.639 613.808 712.233 613.248C711.827 612.688 711.288 612.219 710.616 611.841C709.944 611.463 709.181 611.141 708.327 610.875C707.473 610.609 706.598 610.336 705.702 610.056C704.806 609.762 703.931 609.426 703.077 609.048C702.223 608.67 701.46 608.18 700.788 607.578C700.116 606.962 699.577 606.199 699.171 605.289C698.765 604.365 698.562 603.231 698.562 601.887C698.562 600.809 698.772 599.766 699.192 598.758C699.612 597.75 700.221 596.861 701.019 596.091C701.831 595.307 702.825 594.684 704.001 594.222C705.177 593.746 706.521 593.508 708.033 593.508C709.727 593.508 711.281 593.781 712.695 594.327C714.123 594.859 715.362 595.629 716.412 596.637L715.32 598.758ZM727.457 624.336C725.735 624.336 724.405 623.853 723.467 622.887C722.543 621.921 722.081 620.542 722.081 618.75V605.982H719.603C719.365 605.982 719.162 605.912 718.994 605.772C718.84 605.618 718.763 605.394 718.763 605.1V603.441L722.228 602.958L723.152 596.595C723.208 596.357 723.313 596.175 723.467 596.049C723.635 595.909 723.845 595.839 724.097 595.839H726.176V603H732.224V605.982H726.176V618.477C726.176 619.317 726.379 619.947 726.785 620.367C727.205 620.773 727.737 620.976 728.381 620.976C728.759 620.976 729.081 620.927 729.347 620.829C729.627 620.731 729.865 620.626 730.061 620.514C730.257 620.388 730.425 620.276 730.565 620.178C730.705 620.08 730.831 620.031 730.943 620.031C731.083 620.031 731.188 620.066 731.258 620.136C731.342 620.192 731.426 620.29 731.51 620.43L732.728 622.404C732.056 623.02 731.258 623.496 730.334 623.832C729.41 624.168 728.451 624.336 727.457 624.336ZM753.741 602.664V624H751.284C750.724 624 750.36 623.727 750.192 623.181L749.898 621.039C749.436 621.529 748.953 621.977 748.449 622.383C747.945 622.789 747.406 623.139 746.832 623.433C746.258 623.713 745.649 623.93 745.005 624.084C744.361 624.252 743.668 624.336 742.926 624.336C741.75 624.336 740.714 624.14 739.818 623.748C738.936 623.356 738.194 622.81 737.592 622.11C736.99 621.396 736.535 620.542 736.227 619.548C735.919 618.554 735.765 617.455 735.765 616.251V602.664H739.881V616.251C739.881 617.777 740.231 618.967 740.931 619.821C741.631 620.661 742.702 621.081 744.144 621.081C745.194 621.081 746.174 620.836 747.084 620.346C747.994 619.842 748.848 619.156 749.646 618.288V602.664H753.741ZM773.212 607.83C772.54 606.948 771.812 606.332 771.028 605.982C770.258 605.632 769.39 605.457 768.424 605.457C766.548 605.457 765.092 606.136 764.056 607.494C763.034 608.838 762.523 610.805 762.523 613.395C762.523 614.753 762.635 615.915 762.859 616.881C763.097 617.833 763.433 618.617 763.867 619.233C764.315 619.835 764.861 620.283 765.505 620.577C766.149 620.857 766.877 620.997 767.689 620.997C768.879 620.997 769.908 620.731 770.776 620.199C771.644 619.667 772.456 618.918 773.212 617.952V607.83ZM777.328 593.004V624H774.85C774.276 624 773.919 623.727 773.779 623.181L773.422 620.724C772.512 621.802 771.476 622.67 770.314 623.328C769.166 623.972 767.836 624.294 766.324 624.294C765.106 624.294 764 624.056 763.006 623.58C762.026 623.104 761.186 622.411 760.486 621.501C759.786 620.577 759.247 619.436 758.869 618.078C758.491 616.72 758.302 615.159 758.302 613.395C758.302 611.813 758.512 610.343 758.932 608.985C759.352 607.627 759.961 606.451 760.759 605.457C761.557 604.463 762.523 603.686 763.657 603.126C764.791 602.552 766.072 602.265 767.5 602.265C768.788 602.265 769.88 602.475 770.776 602.895C771.686 603.315 772.498 603.91 773.212 604.68V593.004H777.328ZM797.174 610.959C797.174 610.147 797.055 609.398 796.817 608.712C796.593 608.026 796.257 607.431 795.809 606.927C795.361 606.423 794.815 606.031 794.171 605.751C793.527 605.471 792.785 605.331 791.945 605.331C790.223 605.331 788.865 605.828 787.871 606.822C786.891 607.816 786.268 609.195 786.002 610.959H797.174ZM800.555 620.955C800.051 621.543 799.47 622.054 798.812 622.488C798.154 622.908 797.454 623.251 796.712 623.517C795.97 623.783 795.2 623.979 794.402 624.105C793.618 624.231 792.841 624.294 792.071 624.294C790.601 624.294 789.236 624.049 787.976 623.559C786.73 623.055 785.645 622.327 784.721 621.375C783.811 620.409 783.097 619.219 782.579 617.805C782.075 616.377 781.823 614.739 781.823 612.891C781.823 611.407 782.054 610.028 782.516 608.754C782.978 607.466 783.636 606.346 784.49 605.394C785.358 604.442 786.415 603.693 787.661 603.147C788.907 602.601 790.307 602.328 791.861 602.328C793.163 602.328 794.36 602.545 795.452 602.979C796.558 603.399 797.51 604.015 798.308 604.827C799.106 605.639 799.729 606.64 800.177 607.83C800.639 609.02 800.87 610.378 800.87 611.904C800.87 612.534 800.8 612.961 800.66 613.185C800.52 613.395 800.261 613.5 799.883 613.5H785.897C785.939 614.774 786.121 615.887 786.443 616.839C786.765 617.777 787.206 618.561 787.766 619.191C788.34 619.821 789.019 620.29 789.803 620.598C790.587 620.906 791.462 621.06 792.428 621.06C793.338 621.06 794.122 620.955 794.78 620.745C795.452 620.535 796.026 620.311 796.502 620.073C796.992 619.821 797.398 619.59 797.72 619.38C798.056 619.17 798.35 619.065 798.602 619.065C798.938 619.065 799.197 619.191 799.379 619.443L800.555 620.955ZM809.115 605.625C809.577 605.135 810.06 604.687 810.564 604.281C811.068 603.875 811.6 603.532 812.16 603.252C812.734 602.958 813.343 602.734 813.987 602.58C814.645 602.412 815.345 602.328 816.087 602.328C817.263 602.328 818.292 602.524 819.174 602.916C820.07 603.308 820.819 603.861 821.421 604.575C822.023 605.275 822.478 606.122 822.786 607.116C823.094 608.11 823.248 609.209 823.248 610.413V624H819.132V610.413C819.132 608.887 818.782 607.704 818.082 606.864C817.382 606.01 816.311 605.583 814.869 605.583C813.819 605.583 812.832 605.835 811.908 606.339C810.998 606.829 810.151 607.501 809.367 608.355V624H805.272V602.664H807.729C808.303 602.664 808.66 602.937 808.8 603.483L809.115 605.625ZM842.906 610.959C842.906 610.147 842.787 609.398 842.549 608.712C842.325 608.026 841.989 607.431 841.541 606.927C841.093 606.423 840.547 606.031 839.903 605.751C839.259 605.471 838.517 605.331 837.677 605.331C835.955 605.331 834.597 605.828 833.603 606.822C832.623 607.816 832 609.195 831.734 610.959H842.906ZM846.287 620.955C845.783 621.543 845.202 622.054 844.544 622.488C843.886 622.908 843.186 623.251 842.444 623.517C841.702 623.783 840.932 623.979 840.134 624.105C839.35 624.231 838.573 624.294 837.803 624.294C836.333 624.294 834.968 624.049 833.708 623.559C832.462 623.055 831.377 622.327 830.453 621.375C829.543 620.409 828.829 619.219 828.311 617.805C827.807 616.377 827.555 614.739 827.555 612.891C827.555 611.407 827.786 610.028 828.248 608.754C828.71 607.466 829.368 606.346 830.222 605.394C831.09 604.442 832.147 603.693 833.393 603.147C834.639 602.601 836.039 602.328 837.593 602.328C838.895 602.328 840.092 602.545 841.184 602.979C842.29 603.399 843.242 604.015 844.04 604.827C844.838 605.639 845.461 606.64 845.909 607.83C846.371 609.02 846.602 610.378 846.602 611.904C846.602 612.534 846.532 612.961 846.392 613.185C846.252 613.395 845.993 613.5 845.615 613.5H831.629C831.671 614.774 831.853 615.887 832.175 616.839C832.497 617.777 832.938 618.561 833.498 619.191C834.072 619.821 834.751 620.29 835.535 620.598C836.319 620.906 837.194 621.06 838.16 621.06C839.07 621.06 839.854 620.955 840.512 620.745C841.184 620.535 841.758 620.311 842.234 620.073C842.724 619.821 843.13 619.59 843.452 619.38C843.788 619.17 844.082 619.065 844.334 619.065C844.67 619.065 844.929 619.191 845.111 619.443L846.287 620.955ZM857.518 624.336C855.796 624.336 854.466 623.853 853.528 622.887C852.604 621.921 852.142 620.542 852.142 618.75V605.982H849.664C849.426 605.982 849.223 605.912 849.055 605.772C848.901 605.618 848.824 605.394 848.824 605.1V603.441L852.289 602.958L853.213 596.595C853.269 596.357 853.374 596.175 853.528 596.049C853.696 595.909 853.906 595.839 854.158 595.839H856.237V603H862.285V605.982H856.237V618.477C856.237 619.317 856.44 619.947 856.846 620.367C857.266 620.773 857.798 620.976 858.442 620.976C858.82 620.976 859.142 620.927 859.408 620.829C859.688 620.731 859.926 620.626 860.122 620.514C860.318 620.388 860.486 620.276 860.626 620.178C860.766 620.08 860.892 620.031 861.004 620.031C861.144 620.031 861.249 620.066 861.319 620.136C861.403 620.192 861.487 620.29 861.571 620.43L862.789 622.404C862.117 623.02 861.319 623.496 860.395 623.832C859.471 624.168 858.512 624.336 857.518 624.336ZM876.032 609.363C877.166 609.363 878.16 609.216 879.014 608.922C879.882 608.628 880.603 608.215 881.177 607.683C881.765 607.137 882.206 606.493 882.5 605.751C882.794 604.995 882.941 604.162 882.941 603.252C882.941 601.418 882.367 599.976 881.219 598.926C880.085 597.876 878.356 597.351 876.032 597.351H871.37V609.363H876.032ZM876.032 593.844C877.964 593.844 879.644 594.068 881.072 594.516C882.5 594.964 883.683 595.601 884.621 596.427C885.559 597.239 886.252 598.226 886.7 599.388C887.162 600.55 887.393 601.838 887.393 603.252C887.393 604.666 887.148 605.968 886.658 607.158C886.168 608.334 885.447 609.349 884.495 610.203C883.543 611.057 882.353 611.722 880.925 612.198C879.511 612.66 877.88 612.891 876.032 612.891H871.37V624H866.897V593.844H876.032ZM904.553 610.959C904.553 610.147 904.434 609.398 904.196 608.712C903.972 608.026 903.636 607.431 903.188 606.927C902.74 606.423 902.194 606.031 901.55 605.751C900.906 605.471 900.164 605.331 899.324 605.331C897.602 605.331 896.244 605.828 895.25 606.822C894.27 607.816 893.647 609.195 893.381 610.959H904.553ZM907.934 620.955C907.43 621.543 906.849 622.054 906.191 622.488C905.533 622.908 904.833 623.251 904.091 623.517C903.349 623.783 902.579 623.979 901.781 624.105C900.997 624.231 900.22 624.294 899.45 624.294C897.98 624.294 896.615 624.049 895.355 623.559C894.109 623.055 893.024 622.327 892.1 621.375C891.19 620.409 890.476 619.219 889.958 617.805C889.454 616.377 889.202 614.739 889.202 612.891C889.202 611.407 889.433 610.028 889.895 608.754C890.357 607.466 891.015 606.346 891.869 605.394C892.737 604.442 893.794 603.693 895.04 603.147C896.286 602.601 897.686 602.328 899.24 602.328C900.542 602.328 901.739 602.545 902.831 602.979C903.937 603.399 904.889 604.015 905.687 604.827C906.485 605.639 907.108 606.64 907.556 607.83C908.018 609.02 908.249 610.378 908.249 611.904C908.249 612.534 908.179 612.961 908.039 613.185C907.899 613.395 907.64 613.5 907.262 613.5H893.276C893.318 614.774 893.5 615.887 893.822 616.839C894.144 617.777 894.585 618.561 895.145 619.191C895.719 619.821 896.398 620.29 897.182 620.598C897.966 620.906 898.841 621.06 899.807 621.06C900.717 621.06 901.501 620.955 902.159 620.745C902.831 620.535 903.405 620.311 903.881 620.073C904.371 619.821 904.777 619.59 905.099 619.38C905.435 619.17 905.729 619.065 905.981 619.065C906.317 619.065 906.576 619.191 906.758 619.443L907.934 620.955ZM926.783 610.959C926.783 610.147 926.664 609.398 926.426 608.712C926.202 608.026 925.866 607.431 925.418 606.927C924.97 606.423 924.424 606.031 923.78 605.751C923.136 605.471 922.394 605.331 921.554 605.331C919.832 605.331 918.474 605.828 917.48 606.822C916.5 607.816 915.877 609.195 915.611 610.959H926.783ZM930.164 620.955C929.66 621.543 929.079 622.054 928.421 622.488C927.763 622.908 927.063 623.251 926.321 623.517C925.579 623.783 924.809 623.979 924.011 624.105C923.227 624.231 922.45 624.294 921.68 624.294C920.21 624.294 918.845 624.049 917.585 623.559C916.339 623.055 915.254 622.327 914.33 621.375C913.42 620.409 912.706 619.219 912.188 617.805C911.684 616.377 911.432 614.739 911.432 612.891C911.432 611.407 911.663 610.028 912.125 608.754C912.587 607.466 913.245 606.346 914.099 605.394C914.967 604.442 916.024 603.693 917.27 603.147C918.516 602.601 919.916 602.328 921.47 602.328C922.772 602.328 923.969 602.545 925.061 602.979C926.167 603.399 927.119 604.015 927.917 604.827C928.715 605.639 929.338 606.64 929.786 607.83C930.248 609.02 930.479 610.378 930.479 611.904C930.479 612.534 930.409 612.961 930.269 613.185C930.129 613.395 929.87 613.5 929.492 613.5H915.506C915.548 614.774 915.73 615.887 916.052 616.839C916.374 617.777 916.815 618.561 917.375 619.191C917.949 619.821 918.628 620.29 919.412 620.598C920.196 620.906 921.071 621.06 922.037 621.06C922.947 621.06 923.731 620.955 924.389 620.745C925.061 620.535 925.635 620.311 926.111 620.073C926.601 619.821 927.007 619.59 927.329 619.38C927.665 619.17 927.959 619.065 928.211 619.065C928.547 619.065 928.806 619.191 928.988 619.443L930.164 620.955ZM938.976 618.75C939.648 619.632 940.369 620.248 941.139 620.598C941.923 620.948 942.798 621.123 943.764 621.123C945.64 621.123 947.089 620.451 948.111 619.107C949.147 617.749 949.665 615.775 949.665 613.185C949.665 611.827 949.546 610.672 949.308 609.72C949.084 608.754 948.748 607.97 948.3 607.368C947.866 606.752 947.327 606.304 946.683 606.024C946.039 605.73 945.311 605.583 944.499 605.583C943.309 605.583 942.273 605.849 941.391 606.381C940.523 606.913 939.718 607.669 938.976 608.649V618.75ZM938.766 605.856C939.214 605.324 939.69 604.841 940.194 604.407C940.712 603.959 941.265 603.581 941.853 603.273C942.441 602.951 943.064 602.706 943.722 602.538C944.394 602.356 945.108 602.265 945.864 602.265C947.082 602.265 948.181 602.503 949.161 602.979C950.155 603.455 951.002 604.155 951.702 605.079C952.402 606.003 952.941 607.144 953.319 608.502C953.711 609.86 953.907 611.421 953.907 613.185C953.907 614.767 953.69 616.237 953.256 617.595C952.836 618.939 952.227 620.108 951.429 621.102C950.645 622.096 949.679 622.88 948.531 623.454C947.397 624.014 946.116 624.294 944.688 624.294C943.414 624.294 942.322 624.084 941.412 623.664C940.502 623.244 939.69 622.656 938.976 621.9V631.161H934.881V602.664H937.338C937.912 602.664 938.269 602.937 938.409 603.483L938.766 605.856ZM971.085 606.339C970.973 606.521 970.854 606.654 970.728 606.738C970.602 606.808 970.441 606.843 970.245 606.843C970.021 606.843 969.769 606.766 969.489 606.612C969.223 606.458 968.894 606.29 968.502 606.108C968.124 605.926 967.676 605.758 967.158 605.604C966.64 605.45 966.024 605.373 965.31 605.373C964.722 605.373 964.183 605.45 963.693 605.604C963.217 605.744 962.811 605.947 962.475 606.213C962.139 606.465 961.88 606.773 961.698 607.137C961.516 607.487 961.425 607.865 961.425 608.271C961.425 608.803 961.579 609.244 961.887 609.594C962.209 609.944 962.622 610.245 963.126 610.497C963.644 610.749 964.225 610.98 964.869 611.19C965.527 611.386 966.192 611.596 966.864 611.82C967.55 612.044 968.215 612.303 968.859 612.597C969.517 612.877 970.098 613.234 970.602 613.668C971.12 614.088 971.533 614.599 971.841 615.201C972.163 615.803 972.324 616.538 972.324 617.406C972.324 618.4 972.142 619.324 971.778 620.178C971.428 621.018 970.903 621.746 970.203 622.362C969.517 622.978 968.663 623.461 967.641 623.811C966.619 624.161 965.45 624.336 964.134 624.336C962.664 624.336 961.306 624.091 960.06 623.601C958.814 623.111 957.771 622.488 956.931 621.732L957.897 620.157C958.009 619.961 958.149 619.814 958.317 619.716C958.485 619.604 958.709 619.548 958.989 619.548C959.255 619.548 959.528 619.646 959.808 619.842C960.088 620.038 960.424 620.255 960.816 620.493C961.208 620.717 961.684 620.927 962.244 621.123C962.804 621.305 963.504 621.396 964.344 621.396C965.044 621.396 965.653 621.312 966.171 621.144C966.689 620.962 967.116 620.724 967.452 620.43C967.802 620.122 968.061 619.772 968.229 619.38C968.397 618.988 968.481 618.575 968.481 618.141C968.481 617.581 968.32 617.119 967.998 616.755C967.69 616.377 967.277 616.055 966.759 615.789C966.255 615.523 965.674 615.292 965.016 615.096C964.358 614.9 963.686 614.69 963 614.466C962.314 614.242 961.642 613.983 960.984 613.689C960.326 613.395 959.738 613.024 959.22 612.576C958.716 612.128 958.303 611.582 957.981 610.938C957.673 610.294 957.519 609.51 957.519 608.586C957.519 607.76 957.687 606.969 958.023 606.213C958.373 605.457 958.87 604.792 959.514 604.218C960.172 603.644 960.977 603.189 961.929 602.853C962.895 602.503 963.994 602.328 965.226 602.328C966.64 602.328 967.914 602.552 969.048 603C970.196 603.448 971.176 604.064 971.988 604.848L971.085 606.339ZM976.086 621.543C976.086 621.165 976.156 620.808 976.296 620.472C976.436 620.136 976.625 619.842 976.863 619.59C977.115 619.338 977.409 619.142 977.745 619.002C978.081 618.848 978.445 618.771 978.837 618.771C979.215 618.771 979.572 618.848 979.908 619.002C980.244 619.142 980.538 619.338 980.79 619.59C981.042 619.842 981.238 620.136 981.378 620.472C981.532 620.808 981.609 621.165 981.609 621.543C981.609 621.935 981.532 622.299 981.378 622.635C981.238 622.971 981.042 623.265 980.79 623.517C980.538 623.769 980.244 623.965 979.908 624.105C979.572 624.245 979.215 624.315 978.837 624.315C978.445 624.315 978.081 624.245 977.745 624.105C977.409 623.965 977.115 623.769 976.863 623.517C976.625 623.265 976.436 622.971 976.296 622.635C976.156 622.299 976.086 621.935 976.086 621.543ZM1001.64 606.654C1001.51 606.808 1001.38 606.934 1001.26 607.032C1001.15 607.116 1000.98 607.158 1000.75 607.158C1000.53 607.158 1000.29 607.074 1000.04 606.906C999.802 606.724 999.494 606.535 999.116 606.339C998.752 606.129 998.304 605.94 997.772 605.772C997.254 605.59 996.61 605.499 995.84 605.499C994.832 605.499 993.943 605.681 993.173 606.045C992.403 606.409 991.759 606.927 991.241 607.599C990.737 608.271 990.352 609.09 990.086 610.056C989.82 611.022 989.687 612.107 989.687 613.311C989.687 614.557 989.827 615.67 990.107 616.65C990.387 617.616 990.786 618.435 991.304 619.107C991.822 619.765 992.452 620.269 993.194 620.619C993.936 620.955 994.762 621.123 995.672 621.123C996.554 621.123 997.282 621.018 997.856 620.808C998.43 620.584 998.906 620.346 999.284 620.094C999.662 619.842 999.977 619.611 1000.23 619.401C1000.48 619.177 1000.74 619.065 1001.01 619.065C1001.34 619.065 1001.6 619.191 1001.78 619.443L1002.96 620.955C1002.47 621.557 1001.92 622.068 1001.3 622.488C1000.7 622.908 1000.05 623.251 999.368 623.517C998.682 623.783 997.961 623.979 997.205 624.105C996.463 624.231 995.707 624.294 994.937 624.294C993.607 624.294 992.361 624.049 991.199 623.559C990.051 623.069 989.05 622.355 988.196 621.417C987.356 620.479 986.691 619.331 986.201 617.973C985.711 616.601 985.466 615.047 985.466 613.311C985.466 611.729 985.683 610.266 986.117 608.922C986.565 607.578 987.216 606.423 988.07 605.457C988.938 604.477 990.002 603.714 991.262 603.168C992.522 602.608 993.964 602.328 995.588 602.328C997.114 602.328 998.458 602.573 999.62 603.063C1000.78 603.553 1001.82 604.246 1002.73 605.142L1001.64 606.654ZM1010.98 593.004V624H1006.87V593.004H1010.98ZM1034.58 602.664V624H1032.12C1031.56 624 1031.19 623.727 1031.03 623.181L1030.73 621.039C1030.27 621.529 1029.79 621.977 1029.28 622.383C1028.78 622.789 1028.24 623.139 1027.67 623.433C1027.09 623.713 1026.48 623.93 1025.84 624.084C1025.2 624.252 1024.5 624.336 1023.76 624.336C1022.58 624.336 1021.55 624.14 1020.65 623.748C1019.77 623.356 1019.03 622.81 1018.43 622.11C1017.82 621.396 1017.37 620.542 1017.06 619.548C1016.75 618.554 1016.6 617.455 1016.6 616.251V602.664H1020.72V616.251C1020.72 617.777 1021.07 618.967 1021.77 619.821C1022.47 620.661 1023.54 621.081 1024.98 621.081C1026.03 621.081 1027.01 620.836 1027.92 620.346C1028.83 619.842 1029.68 619.156 1030.48 618.288V602.664H1034.58ZM1044.39 618.75C1045.06 619.632 1045.79 620.248 1046.57 620.598C1047.35 620.948 1048.21 621.123 1049.13 621.123C1051.04 621.123 1052.5 620.444 1053.52 619.086C1054.56 617.728 1055.08 615.677 1055.08 612.933C1055.08 610.399 1054.62 608.544 1053.71 607.368C1052.8 606.178 1051.51 605.583 1049.85 605.583C1048.67 605.583 1047.65 605.849 1046.78 606.381C1045.93 606.913 1045.13 607.669 1044.39 608.649V618.75ZM1044.39 605.604C1045.27 604.624 1046.27 603.833 1047.39 603.231C1048.51 602.629 1049.78 602.328 1051.21 602.328C1052.46 602.328 1053.58 602.573 1054.57 603.063C1055.58 603.539 1056.43 604.232 1057.13 605.142C1057.83 606.038 1058.37 607.13 1058.75 608.418C1059.13 609.706 1059.32 611.162 1059.32 612.786C1059.32 614.508 1059.1 616.076 1058.67 617.49C1058.25 618.904 1057.64 620.115 1056.84 621.123C1056.06 622.131 1055.1 622.915 1053.96 623.475C1052.83 624.021 1051.55 624.294 1050.14 624.294C1049.45 624.294 1048.82 624.224 1048.25 624.084C1047.68 623.958 1047.14 623.769 1046.65 623.517C1046.18 623.265 1045.74 622.957 1045.33 622.593C1044.93 622.229 1044.54 621.816 1044.18 621.354L1043.99 623.139C1043.88 623.713 1043.53 624 1042.94 624H1040.29V593.004H1044.39V605.604Z" fill="white"/>
<path d="M657.362 479.414H623.02C621.639 479.414 620.519 480.534 620.519 481.915V537.665C620.519 539.046 621.639 540.16 623.02 540.16H657.362C658.741 540.16 659.86 539.046 659.86 537.665V481.915C659.86 480.534 658.741 479.414 657.362 479.414Z" fill="#FBFCFD"/>
<path d="M657.112 530.137H623.27V483.237H657.112V530.137Z" fill="#B721FF"/>
<path d="M644.115 535.273C644.115 537.442 642.356 539.196 640.19 539.196C638.024 539.196 636.268 537.442 636.268 535.273C636.268 533.108 638.024 531.351 640.19 531.351C642.356 531.351 644.115 533.108 644.115 535.273Z" fill="#B721FF"/>
<path d="M640.19 573.513L612.014 600.571H620.458V621.495H633.956C633.946 621.352 633.912 621.219 633.912 621.076V611.87C633.912 608.419 636.738 605.593 640.19 605.593C643.642 605.593 646.465 608.419 646.465 611.87V621.076C646.465 621.219 646.434 621.352 646.424 621.495H659.234V600.571H668.365L640.19 573.513Z" fill="#FBFCFD"/>
<path d="M715.32 423.758C715.18 423.996 715.033 424.171 714.879 424.283C714.725 424.395 714.529 424.451 714.291 424.451C714.039 424.451 713.752 424.339 713.43 424.115C713.108 423.877 712.702 423.618 712.212 423.338C711.736 423.044 711.162 422.785 710.49 422.561C709.818 422.323 709.013 422.204 708.075 422.204C707.193 422.204 706.416 422.323 705.744 422.561C705.086 422.785 704.533 423.1 704.085 423.506C703.637 423.898 703.294 424.367 703.056 424.913C702.832 425.445 702.72 426.026 702.72 426.656C702.72 427.468 702.923 428.14 703.329 428.672C703.749 429.204 704.295 429.659 704.967 430.037C705.639 430.415 706.402 430.744 707.256 431.024C708.11 431.304 708.985 431.598 709.881 431.906C710.777 432.2 711.652 432.543 712.506 432.935C713.36 433.327 714.123 433.824 714.795 434.426C715.467 435.014 716.006 435.742 716.412 436.61C716.832 437.464 717.042 438.514 717.042 439.76C717.042 441.09 716.811 442.336 716.349 443.498C715.901 444.66 715.243 445.675 714.375 446.543C713.507 447.411 712.436 448.097 711.162 448.601C709.902 449.091 708.467 449.336 706.857 449.336C705.891 449.336 704.953 449.238 704.043 449.042C703.133 448.86 702.272 448.601 701.46 448.265C700.648 447.915 699.885 447.502 699.171 447.026C698.471 446.536 697.841 445.99 697.281 445.388L698.562 443.246C698.688 443.078 698.835 442.938 699.003 442.826C699.185 442.714 699.388 442.658 699.612 442.658C699.906 442.658 700.242 442.812 700.62 443.12C701.012 443.428 701.488 443.771 702.048 444.149C702.622 444.513 703.301 444.849 704.085 445.157C704.883 445.465 705.849 445.619 706.983 445.619C707.907 445.619 708.733 445.5 709.461 445.262C710.189 445.01 710.798 444.66 711.288 444.212C711.792 443.75 712.177 443.197 712.443 442.553C712.709 441.909 712.842 441.195 712.842 440.411C712.842 439.529 712.639 438.808 712.233 438.248C711.827 437.688 711.288 437.219 710.616 436.841C709.944 436.463 709.181 436.141 708.327 435.875C707.473 435.609 706.598 435.336 705.702 435.056C704.806 434.762 703.931 434.426 703.077 434.048C702.223 433.67 701.46 433.18 700.788 432.578C700.116 431.962 699.577 431.199 699.171 430.289C698.765 429.365 698.562 428.231 698.562 426.887C698.562 425.809 698.772 424.766 699.192 423.758C699.612 422.75 700.221 421.861 701.019 421.091C701.831 420.307 702.825 419.684 704.001 419.222C705.177 418.746 706.521 418.508 708.033 418.508C709.727 418.508 711.281 418.781 712.695 419.327C714.123 419.859 715.362 420.629 716.412 421.637L715.32 423.758ZM727.457 449.336C725.735 449.336 724.405 448.853 723.467 447.887C722.543 446.921 722.081 445.542 722.081 443.75V430.982H719.603C719.365 430.982 719.162 430.912 718.994 430.772C718.84 430.618 718.763 430.394 718.763 430.1V428.441L722.228 427.958L723.152 421.595C723.208 421.357 723.313 421.175 723.467 421.049C723.635 420.909 723.845 420.839 724.097 420.839H726.176V428H732.224V430.982H726.176V443.477C726.176 444.317 726.379 444.947 726.785 445.367C727.205 445.773 727.737 445.976 728.381 445.976C728.759 445.976 729.081 445.927 729.347 445.829C729.627 445.731 729.865 445.626 730.061 445.514C730.257 445.388 730.425 445.276 730.565 445.178C730.705 445.08 730.831 445.031 730.943 445.031C731.083 445.031 731.188 445.066 731.258 445.136C731.342 445.192 731.426 445.29 731.51 445.43L732.728 447.404C732.056 448.02 731.258 448.496 730.334 448.832C729.41 449.168 728.451 449.336 727.457 449.336ZM753.741 427.664V449H751.284C750.724 449 750.36 448.727 750.192 448.181L749.898 446.039C749.436 446.529 748.953 446.977 748.449 447.383C747.945 447.789 747.406 448.139 746.832 448.433C746.258 448.713 745.649 448.93 745.005 449.084C744.361 449.252 743.668 449.336 742.926 449.336C741.75 449.336 740.714 449.14 739.818 448.748C738.936 448.356 738.194 447.81 737.592 447.11C736.99 446.396 736.535 445.542 736.227 444.548C735.919 443.554 735.765 442.455 735.765 441.251V427.664H739.881V441.251C739.881 442.777 740.231 443.967 740.931 444.821C741.631 445.661 742.702 446.081 744.144 446.081C745.194 446.081 746.174 445.836 747.084 445.346C747.994 444.842 748.848 444.156 749.646 443.288V427.664H753.741ZM773.212 432.83C772.54 431.948 771.812 431.332 771.028 430.982C770.258 430.632 769.39 430.457 768.424 430.457C766.548 430.457 765.092 431.136 764.056 432.494C763.034 433.838 762.523 435.805 762.523 438.395C762.523 439.753 762.635 440.915 762.859 441.881C763.097 442.833 763.433 443.617 763.867 444.233C764.315 444.835 764.861 445.283 765.505 445.577C766.149 445.857 766.877 445.997 767.689 445.997C768.879 445.997 769.908 445.731 770.776 445.199C771.644 444.667 772.456 443.918 773.212 442.952V432.83ZM777.328 418.004V449H774.85C774.276 449 773.919 448.727 773.779 448.181L773.422 445.724C772.512 446.802 771.476 447.67 770.314 448.328C769.166 448.972 767.836 449.294 766.324 449.294C765.106 449.294 764 449.056 763.006 448.58C762.026 448.104 761.186 447.411 760.486 446.501C759.786 445.577 759.247 444.436 758.869 443.078C758.491 441.72 758.302 440.159 758.302 438.395C758.302 436.813 758.512 435.343 758.932 433.985C759.352 432.627 759.961 431.451 760.759 430.457C761.557 429.463 762.523 428.686 763.657 428.126C764.791 427.552 766.072 427.265 767.5 427.265C768.788 427.265 769.88 427.475 770.776 427.895C771.686 428.315 772.498 428.91 773.212 429.68V418.004H777.328ZM797.174 435.959C797.174 435.147 797.055 434.398 796.817 433.712C796.593 433.026 796.257 432.431 795.809 431.927C795.361 431.423 794.815 431.031 794.171 430.751C793.527 430.471 792.785 430.331 791.945 430.331C790.223 430.331 788.865 430.828 787.871 431.822C786.891 432.816 786.268 434.195 786.002 435.959H797.174ZM800.555 445.955C800.051 446.543 799.47 447.054 798.812 447.488C798.154 447.908 797.454 448.251 796.712 448.517C795.97 448.783 795.2 448.979 794.402 449.105C793.618 449.231 792.841 449.294 792.071 449.294C790.601 449.294 789.236 449.049 787.976 448.559C786.73 448.055 785.645 447.327 784.721 446.375C783.811 445.409 783.097 444.219 782.579 442.805C782.075 441.377 781.823 439.739 781.823 437.891C781.823 436.407 782.054 435.028 782.516 433.754C782.978 432.466 783.636 431.346 784.49 430.394C785.358 429.442 786.415 428.693 787.661 428.147C788.907 427.601 790.307 427.328 791.861 427.328C793.163 427.328 794.36 427.545 795.452 427.979C796.558 428.399 797.51 429.015 798.308 429.827C799.106 430.639 799.729 431.64 800.177 432.83C800.639 434.02 800.87 435.378 800.87 436.904C800.87 437.534 800.8 437.961 800.66 438.185C800.52 438.395 800.261 438.5 799.883 438.5H785.897C785.939 439.774 786.121 440.887 786.443 441.839C786.765 442.777 787.206 443.561 787.766 444.191C788.34 444.821 789.019 445.29 789.803 445.598C790.587 445.906 791.462 446.06 792.428 446.06C793.338 446.06 794.122 445.955 794.78 445.745C795.452 445.535 796.026 445.311 796.502 445.073C796.992 444.821 797.398 444.59 797.72 444.38C798.056 444.17 798.35 444.065 798.602 444.065C798.938 444.065 799.197 444.191 799.379 444.443L800.555 445.955ZM809.115 430.625C809.577 430.135 810.06 429.687 810.564 429.281C811.068 428.875 811.6 428.532 812.16 428.252C812.734 427.958 813.343 427.734 813.987 427.58C814.645 427.412 815.345 427.328 816.087 427.328C817.263 427.328 818.292 427.524 819.174 427.916C820.07 428.308 820.819 428.861 821.421 429.575C822.023 430.275 822.478 431.122 822.786 432.116C823.094 433.11 823.248 434.209 823.248 435.413V449H819.132V435.413C819.132 433.887 818.782 432.704 818.082 431.864C817.382 431.01 816.311 430.583 814.869 430.583C813.819 430.583 812.832 430.835 811.908 431.339C810.998 431.829 810.151 432.501 809.367 433.355V449H805.272V427.664H807.729C808.303 427.664 808.66 427.937 808.8 428.483L809.115 430.625ZM842.906 435.959C842.906 435.147 842.787 434.398 842.549 433.712C842.325 433.026 841.989 432.431 841.541 431.927C841.093 431.423 840.547 431.031 839.903 430.751C839.259 430.471 838.517 430.331 837.677 430.331C835.955 430.331 834.597 430.828 833.603 431.822C832.623 432.816 832 434.195 831.734 435.959H842.906ZM846.287 445.955C845.783 446.543 845.202 447.054 844.544 447.488C843.886 447.908 843.186 448.251 842.444 448.517C841.702 448.783 840.932 448.979 840.134 449.105C839.35 449.231 838.573 449.294 837.803 449.294C836.333 449.294 834.968 449.049 833.708 448.559C832.462 448.055 831.377 447.327 830.453 446.375C829.543 445.409 828.829 444.219 828.311 442.805C827.807 441.377 827.555 439.739 827.555 437.891C827.555 436.407 827.786 435.028 828.248 433.754C828.71 432.466 829.368 431.346 830.222 430.394C831.09 429.442 832.147 428.693 833.393 428.147C834.639 427.601 836.039 427.328 837.593 427.328C838.895 427.328 840.092 427.545 841.184 427.979C842.29 428.399 843.242 429.015 844.04 429.827C844.838 430.639 845.461 431.64 845.909 432.83C846.371 434.02 846.602 435.378 846.602 436.904C846.602 437.534 846.532 437.961 846.392 438.185C846.252 438.395 845.993 438.5 845.615 438.5H831.629C831.671 439.774 831.853 440.887 832.175 441.839C832.497 442.777 832.938 443.561 833.498 444.191C834.072 444.821 834.751 445.29 835.535 445.598C836.319 445.906 837.194 446.06 838.16 446.06C839.07 446.06 839.854 445.955 840.512 445.745C841.184 445.535 841.758 445.311 842.234 445.073C842.724 444.821 843.13 444.59 843.452 444.38C843.788 444.17 844.082 444.065 844.334 444.065C844.67 444.065 844.929 444.191 845.111 444.443L846.287 445.955ZM857.518 449.336C855.796 449.336 854.466 448.853 853.528 447.887C852.604 446.921 852.142 445.542 852.142 443.75V430.982H849.664C849.426 430.982 849.223 430.912 849.055 430.772C848.901 430.618 848.824 430.394 848.824 430.1V428.441L852.289 427.958L853.213 421.595C853.269 421.357 853.374 421.175 853.528 421.049C853.696 420.909 853.906 420.839 854.158 420.839H856.237V428H862.285V430.982H856.237V443.477C856.237 444.317 856.44 444.947 856.846 445.367C857.266 445.773 857.798 445.976 858.442 445.976C858.82 445.976 859.142 445.927 859.408 445.829C859.688 445.731 859.926 445.626 860.122 445.514C860.318 445.388 860.486 445.276 860.626 445.178C860.766 445.08 860.892 445.031 861.004 445.031C861.144 445.031 861.249 445.066 861.319 445.136C861.403 445.192 861.487 445.29 861.571 445.43L862.789 447.404C862.117 448.02 861.319 448.496 860.395 448.832C859.471 449.168 858.512 449.336 857.518 449.336ZM876.032 434.363C877.166 434.363 878.16 434.216 879.014 433.922C879.882 433.628 880.603 433.215 881.177 432.683C881.765 432.137 882.206 431.493 882.5 430.751C882.794 429.995 882.941 429.162 882.941 428.252C882.941 426.418 882.367 424.976 881.219 423.926C880.085 422.876 878.356 422.351 876.032 422.351H871.37V434.363H876.032ZM876.032 418.844C877.964 418.844 879.644 419.068 881.072 419.516C882.5 419.964 883.683 420.601 884.621 421.427C885.559 422.239 886.252 423.226 886.7 424.388C887.162 425.55 887.393 426.838 887.393 428.252C887.393 429.666 887.148 430.968 886.658 432.158C886.168 433.334 885.447 434.349 884.495 435.203C883.543 436.057 882.353 436.722 880.925 437.198C879.511 437.66 877.88 437.891 876.032 437.891H871.37V449H866.897V418.844H876.032ZM904.553 435.959C904.553 435.147 904.434 434.398 904.196 433.712C903.972 433.026 903.636 432.431 903.188 431.927C902.74 431.423 902.194 431.031 901.55 430.751C900.906 430.471 900.164 430.331 899.324 430.331C897.602 430.331 896.244 430.828 895.25 431.822C894.27 432.816 893.647 434.195 893.381 435.959H904.553ZM907.934 445.955C907.43 446.543 906.849 447.054 906.191 447.488C905.533 447.908 904.833 448.251 904.091 448.517C903.349 448.783 902.579 448.979 901.781 449.105C900.997 449.231 900.22 449.294 899.45 449.294C897.98 449.294 896.615 449.049 895.355 448.559C894.109 448.055 893.024 447.327 892.1 446.375C891.19 445.409 890.476 444.219 889.958 442.805C889.454 441.377 889.202 439.739 889.202 437.891C889.202 436.407 889.433 435.028 889.895 433.754C890.357 432.466 891.015 431.346 891.869 430.394C892.737 429.442 893.794 428.693 895.04 428.147C896.286 427.601 897.686 427.328 899.24 427.328C900.542 427.328 901.739 427.545 902.831 427.979C903.937 428.399 904.889 429.015 905.687 429.827C906.485 430.639 907.108 431.64 907.556 432.83C908.018 434.02 908.249 435.378 908.249 436.904C908.249 437.534 908.179 437.961 908.039 438.185C907.899 438.395 907.64 438.5 907.262 438.5H893.276C893.318 439.774 893.5 440.887 893.822 441.839C894.144 442.777 894.585 443.561 895.145 444.191C895.719 444.821 896.398 445.29 897.182 445.598C897.966 445.906 898.841 446.06 899.807 446.06C900.717 446.06 901.501 445.955 902.159 445.745C902.831 445.535 903.405 445.311 903.881 445.073C904.371 444.821 904.777 444.59 905.099 444.38C905.435 444.17 905.729 444.065 905.981 444.065C906.317 444.065 906.576 444.191 906.758 444.443L907.934 445.955ZM926.783 435.959C926.783 435.147 926.664 434.398 926.426 433.712C926.202 433.026 925.866 432.431 925.418 431.927C924.97 431.423 924.424 431.031 923.78 430.751C923.136 430.471 922.394 430.331 921.554 430.331C919.832 430.331 918.474 430.828 917.48 431.822C916.5 432.816 915.877 434.195 915.611 435.959H926.783ZM930.164 445.955C929.66 446.543 929.079 447.054 928.421 447.488C927.763 447.908 927.063 448.251 926.321 448.517C925.579 448.783 924.809 448.979 924.011 449.105C923.227 449.231 922.45 449.294 921.68 449.294C920.21 449.294 918.845 449.049 917.585 448.559C916.339 448.055 915.254 447.327 914.33 446.375C913.42 445.409 912.706 444.219 912.188 442.805C911.684 441.377 911.432 439.739 911.432 437.891C911.432 436.407 911.663 435.028 912.125 433.754C912.587 432.466 913.245 431.346 914.099 430.394C914.967 429.442 916.024 428.693 917.27 428.147C918.516 427.601 919.916 427.328 921.47 427.328C922.772 427.328 923.969 427.545 925.061 427.979C926.167 428.399 927.119 429.015 927.917 429.827C928.715 430.639 929.338 431.64 929.786 432.83C930.248 434.02 930.479 435.378 930.479 436.904C930.479 437.534 930.409 437.961 930.269 438.185C930.129 438.395 929.87 438.5 929.492 438.5H915.506C915.548 439.774 915.73 440.887 916.052 441.839C916.374 442.777 916.815 443.561 917.375 444.191C917.949 444.821 918.628 445.29 919.412 445.598C920.196 445.906 921.071 446.06 922.037 446.06C922.947 446.06 923.731 445.955 924.389 445.745C925.061 445.535 925.635 445.311 926.111 445.073C926.601 444.821 927.007 444.59 927.329 444.38C927.665 444.17 927.959 444.065 928.211 444.065C928.547 444.065 928.806 444.191 928.988 444.443L930.164 445.955ZM938.976 443.75C939.648 444.632 940.369 445.248 941.139 445.598C941.923 445.948 942.798 446.123 943.764 446.123C945.64 446.123 947.089 445.451 948.111 444.107C949.147 442.749 949.665 440.775 949.665 438.185C949.665 436.827 949.546 435.672 949.308 434.72C949.084 433.754 948.748 432.97 948.3 432.368C947.866 431.752 947.327 431.304 946.683 431.024C946.039 430.73 945.311 430.583 944.499 430.583C943.309 430.583 942.273 430.849 941.391 431.381C940.523 431.913 939.718 432.669 938.976 433.649V443.75ZM938.766 430.856C939.214 430.324 939.69 429.841 940.194 429.407C940.712 428.959 941.265 428.581 941.853 428.273C942.441 427.951 943.064 427.706 943.722 427.538C944.394 427.356 945.108 427.265 945.864 427.265C947.082 427.265 948.181 427.503 949.161 427.979C950.155 428.455 951.002 429.155 951.702 430.079C952.402 431.003 952.941 432.144 953.319 433.502C953.711 434.86 953.907 436.421 953.907 438.185C953.907 439.767 953.69 441.237 953.256 442.595C952.836 443.939 952.227 445.108 951.429 446.102C950.645 447.096 949.679 447.88 948.531 448.454C947.397 449.014 946.116 449.294 944.688 449.294C943.414 449.294 942.322 449.084 941.412 448.664C940.502 448.244 939.69 447.656 938.976 446.9V456.161H934.881V427.664H937.338C937.912 427.664 938.269 427.937 938.409 428.483L938.766 430.856ZM971.085 431.339C970.973 431.521 970.854 431.654 970.728 431.738C970.602 431.808 970.441 431.843 970.245 431.843C970.021 431.843 969.769 431.766 969.489 431.612C969.223 431.458 968.894 431.29 968.502 431.108C968.124 430.926 967.676 430.758 967.158 430.604C966.64 430.45 966.024 430.373 965.31 430.373C964.722 430.373 964.183 430.45 963.693 430.604C963.217 430.744 962.811 430.947 962.475 431.213C962.139 431.465 961.88 431.773 961.698 432.137C961.516 432.487 961.425 432.865 961.425 433.271C961.425 433.803 961.579 434.244 961.887 434.594C962.209 434.944 962.622 435.245 963.126 435.497C963.644 435.749 964.225 435.98 964.869 436.19C965.527 436.386 966.192 436.596 966.864 436.82C967.55 437.044 968.215 437.303 968.859 437.597C969.517 437.877 970.098 438.234 970.602 438.668C971.12 439.088 971.533 439.599 971.841 440.201C972.163 440.803 972.324 441.538 972.324 442.406C972.324 443.4 972.142 444.324 971.778 445.178C971.428 446.018 970.903 446.746 970.203 447.362C969.517 447.978 968.663 448.461 967.641 448.811C966.619 449.161 965.45 449.336 964.134 449.336C962.664 449.336 961.306 449.091 960.06 448.601C958.814 448.111 957.771 447.488 956.931 446.732L957.897 445.157C958.009 444.961 958.149 444.814 958.317 444.716C958.485 444.604 958.709 444.548 958.989 444.548C959.255 444.548 959.528 444.646 959.808 444.842C960.088 445.038 960.424 445.255 960.816 445.493C961.208 445.717 961.684 445.927 962.244 446.123C962.804 446.305 963.504 446.396 964.344 446.396C965.044 446.396 965.653 446.312 966.171 446.144C966.689 445.962 967.116 445.724 967.452 445.43C967.802 445.122 968.061 444.772 968.229 444.38C968.397 443.988 968.481 443.575 968.481 443.141C968.481 442.581 968.32 442.119 967.998 441.755C967.69 441.377 967.277 441.055 966.759 440.789C966.255 440.523 965.674 440.292 965.016 440.096C964.358 439.9 963.686 439.69 963 439.466C962.314 439.242 961.642 438.983 960.984 438.689C960.326 438.395 959.738 438.024 959.22 437.576C958.716 437.128 958.303 436.582 957.981 435.938C957.673 435.294 957.519 434.51 957.519 433.586C957.519 432.76 957.687 431.969 958.023 431.213C958.373 430.457 958.87 429.792 959.514 429.218C960.172 428.644 960.977 428.189 961.929 427.853C962.895 427.503 963.994 427.328 965.226 427.328C966.64 427.328 967.914 427.552 969.048 428C970.196 428.448 971.176 429.064 971.988 429.848L971.085 431.339ZM976.086 446.543C976.086 446.165 976.156 445.808 976.296 445.472C976.436 445.136 976.625 444.842 976.863 444.59C977.115 444.338 977.409 444.142 977.745 444.002C978.081 443.848 978.445 443.771 978.837 443.771C979.215 443.771 979.572 443.848 979.908 444.002C980.244 444.142 980.538 444.338 980.79 444.59C981.042 444.842 981.238 445.136 981.378 445.472C981.532 445.808 981.609 446.165 981.609 446.543C981.609 446.935 981.532 447.299 981.378 447.635C981.238 447.971 981.042 448.265 980.79 448.517C980.538 448.769 980.244 448.965 979.908 449.105C979.572 449.245 979.215 449.315 978.837 449.315C978.445 449.315 978.081 449.245 977.745 449.105C977.409 448.965 977.115 448.769 976.863 448.517C976.625 448.265 976.436 447.971 976.296 447.635C976.156 447.299 976.086 446.935 976.086 446.543ZM1001.64 431.654C1001.51 431.808 1001.38 431.934 1001.26 432.032C1001.15 432.116 1000.98 432.158 1000.75 432.158C1000.53 432.158 1000.29 432.074 1000.04 431.906C999.802 431.724 999.494 431.535 999.116 431.339C998.752 431.129 998.304 430.94 997.772 430.772C997.254 430.59 996.61 430.499 995.84 430.499C994.832 430.499 993.943 430.681 993.173 431.045C992.403 431.409 991.759 431.927 991.241 432.599C990.737 433.271 990.352 434.09 990.086 435.056C989.82 436.022 989.687 437.107 989.687 438.311C989.687 439.557 989.827 440.67 990.107 441.65C990.387 442.616 990.786 443.435 991.304 444.107C991.822 444.765 992.452 445.269 993.194 445.619C993.936 445.955 994.762 446.123 995.672 446.123C996.554 446.123 997.282 446.018 997.856 445.808C998.43 445.584 998.906 445.346 999.284 445.094C999.662 444.842 999.977 444.611 1000.23 444.401C1000.48 444.177 1000.74 444.065 1001.01 444.065C1001.34 444.065 1001.6 444.191 1001.78 444.443L1002.96 445.955C1002.47 446.557 1001.92 447.068 1001.3 447.488C1000.7 447.908 1000.05 448.251 999.368 448.517C998.682 448.783 997.961 448.979 997.205 449.105C996.463 449.231 995.707 449.294 994.937 449.294C993.607 449.294 992.361 449.049 991.199 448.559C990.051 448.069 989.05 447.355 988.196 446.417C987.356 445.479 986.691 444.331 986.201 442.973C985.711 441.601 985.466 440.047 985.466 438.311C985.466 436.729 985.683 435.266 986.117 433.922C986.565 432.578 987.216 431.423 988.07 430.457C988.938 429.477 990.002 428.714 991.262 428.168C992.522 427.608 993.964 427.328 995.588 427.328C997.114 427.328 998.458 427.573 999.62 428.063C1000.78 428.553 1001.82 429.246 1002.73 430.142L1001.64 431.654ZM1010.98 418.004V449H1006.87V418.004H1010.98ZM1034.58 427.664V449H1032.12C1031.56 449 1031.19 448.727 1031.03 448.181L1030.73 446.039C1030.27 446.529 1029.79 446.977 1029.28 447.383C1028.78 447.789 1028.24 448.139 1027.67 448.433C1027.09 448.713 1026.48 448.93 1025.84 449.084C1025.2 449.252 1024.5 449.336 1023.76 449.336C1022.58 449.336 1021.55 449.14 1020.65 448.748C1019.77 448.356 1019.03 447.81 1018.43 447.11C1017.82 446.396 1017.37 445.542 1017.06 444.548C1016.75 443.554 1016.6 442.455 1016.6 441.251V427.664H1020.72V441.251C1020.72 442.777 1021.07 443.967 1021.77 444.821C1022.47 445.661 1023.54 446.081 1024.98 446.081C1026.03 446.081 1027.01 445.836 1027.92 445.346C1028.83 444.842 1029.68 444.156 1030.48 443.288V427.664H1034.58ZM1044.39 443.75C1045.06 444.632 1045.79 445.248 1046.57 445.598C1047.35 445.948 1048.21 446.123 1049.13 446.123C1051.04 446.123 1052.5 445.444 1053.52 444.086C1054.56 442.728 1055.08 440.677 1055.08 437.933C1055.08 435.399 1054.62 433.544 1053.71 432.368C1052.8 431.178 1051.51 430.583 1049.85 430.583C1048.67 430.583 1047.65 430.849 1046.78 431.381C1045.93 431.913 1045.13 432.669 1044.39 433.649V443.75ZM1044.39 430.604C1045.27 429.624 1046.27 428.833 1047.39 428.231C1048.51 427.629 1049.78 427.328 1051.21 427.328C1052.46 427.328 1053.58 427.573 1054.57 428.063C1055.58 428.539 1056.43 429.232 1057.13 430.142C1057.83 431.038 1058.37 432.13 1058.75 433.418C1059.13 434.706 1059.32 436.162 1059.32 437.786C1059.32 439.508 1059.1 441.076 1058.67 442.49C1058.25 443.904 1057.64 445.115 1056.84 446.123C1056.06 447.131 1055.1 447.915 1053.96 448.475C1052.83 449.021 1051.55 449.294 1050.14 449.294C1049.45 449.294 1048.82 449.224 1048.25 449.084C1047.68 448.958 1047.14 448.769 1046.65 448.517C1046.18 448.265 1045.74 447.957 1045.33 447.593C1044.93 447.229 1044.54 446.816 1044.18 446.354L1043.99 448.139C1043.88 448.713 1043.53 449 1042.94 449H1040.29V418.004H1044.39V430.604Z" fill="white"/>
<path d="M718.302 522.463H709.839V531.388H706.5V522.463H698.079V519.355H706.5V510.472H709.839V519.355H718.302V522.463ZM726.558 513.748C726.558 515.61 727.062 517.045 728.07 518.053C729.078 519.061 730.478 519.565 732.27 519.565C733.236 519.565 734.09 519.411 734.832 519.103C735.574 518.781 736.197 518.361 736.701 517.843C737.219 517.311 737.611 516.702 737.877 516.016C738.143 515.316 738.276 514.588 738.276 513.832C738.276 512.922 738.129 512.103 737.835 511.375C737.555 510.633 737.156 510.01 736.638 509.506C736.12 508.988 735.504 508.596 734.79 508.33C734.09 508.05 733.313 507.91 732.459 507.91C731.577 507.91 730.772 508.057 730.044 508.351C729.316 508.631 728.693 509.03 728.175 509.548C727.657 510.066 727.258 510.682 726.978 511.396C726.698 512.11 726.558 512.894 726.558 513.748ZM734.832 523.072C735.378 522.358 735.889 521.658 736.365 520.972C735.609 521.546 734.762 521.98 733.824 522.274C732.9 522.568 731.913 522.715 730.863 522.715C729.757 522.715 728.693 522.526 727.671 522.148C726.663 521.77 725.767 521.217 724.983 520.489C724.213 519.747 723.597 518.837 723.135 517.759C722.673 516.681 722.442 515.442 722.442 514.042C722.442 512.726 722.687 511.487 723.177 510.325C723.667 509.163 724.353 508.155 725.235 507.301C726.131 506.433 727.195 505.754 728.427 505.264C729.673 504.76 731.038 504.508 732.522 504.508C733.992 504.508 735.322 504.746 736.512 505.222C737.716 505.698 738.738 506.37 739.578 507.238C740.418 508.092 741.069 509.121 741.531 510.325C741.993 511.529 742.224 512.852 742.224 514.294C742.224 515.176 742.14 516.016 741.972 516.814C741.818 517.612 741.587 518.389 741.279 519.145C740.985 519.901 740.621 520.65 740.187 521.392C739.767 522.12 739.284 522.869 738.738 523.639L731.493 534.034C731.297 534.314 731.01 534.545 730.632 534.727C730.268 534.909 729.848 535 729.372 535H725.613L734.832 523.072ZM766.189 531.871V535H749.893V531.871H756.277V512.11C756.277 511.48 756.298 510.829 756.34 510.157L751.216 514.504C751.02 514.658 750.824 514.756 750.628 514.798C750.432 514.84 750.243 514.847 750.061 514.819C749.893 514.791 749.739 514.735 749.599 514.651C749.473 514.553 749.368 514.455 749.284 514.357L748.003 512.572L757.033 504.781H760.372V531.871H766.189ZM785.908 513.748C785.908 515.61 786.412 517.045 787.42 518.053C788.428 519.061 789.828 519.565 791.62 519.565C792.586 519.565 793.44 519.411 794.182 519.103C794.924 518.781 795.547 518.361 796.051 517.843C796.569 517.311 796.961 516.702 797.227 516.016C797.493 515.316 797.626 514.588 797.626 513.832C797.626 512.922 797.479 512.103 797.185 511.375C796.905 510.633 796.506 510.01 795.988 509.506C795.47 508.988 794.854 508.596 794.14 508.33C793.44 508.05 792.663 507.91 791.809 507.91C790.927 507.91 790.122 508.057 789.394 508.351C788.666 508.631 788.043 509.03 787.525 509.548C787.007 510.066 786.608 510.682 786.328 511.396C786.048 512.11 785.908 512.894 785.908 513.748ZM794.182 523.072C794.728 522.358 795.239 521.658 795.715 520.972C794.959 521.546 794.112 521.98 793.174 522.274C792.25 522.568 791.263 522.715 790.213 522.715C789.107 522.715 788.043 522.526 787.021 522.148C786.013 521.77 785.117 521.217 784.333 520.489C783.563 519.747 782.947 518.837 782.485 517.759C782.023 516.681 781.792 515.442 781.792 514.042C781.792 512.726 782.037 511.487 782.527 510.325C783.017 509.163 783.703 508.155 784.585 507.301C785.481 506.433 786.545 505.754 787.777 505.264C789.023 504.76 790.388 504.508 791.872 504.508C793.342 504.508 794.672 504.746 795.862 505.222C797.066 505.698 798.088 506.37 798.928 507.238C799.768 508.092 800.419 509.121 800.881 510.325C801.343 511.529 801.574 512.852 801.574 514.294C801.574 515.176 801.49 516.016 801.322 516.814C801.168 517.612 800.937 518.389 800.629 519.145C800.335 519.901 799.971 520.65 799.537 521.392C799.117 522.12 798.634 522.869 798.088 523.639L790.843 534.034C790.647 534.314 790.36 534.545 789.982 534.727C789.618 534.909 789.198 535 788.722 535H784.963L794.182 523.072ZM816.256 532.081C817.208 532.081 818.055 531.948 818.797 531.682C819.539 531.416 820.169 531.045 820.687 530.569C821.205 530.079 821.597 529.498 821.863 528.826C822.129 528.154 822.262 527.419 822.262 526.621C822.262 525.641 822.101 524.801 821.779 524.101C821.457 523.387 821.023 522.806 820.477 522.358C819.931 521.896 819.294 521.56 818.566 521.35C817.838 521.126 817.068 521.014 816.256 521.014C815.43 521.014 814.653 521.126 813.925 521.35C813.197 521.56 812.56 521.896 812.014 522.358C811.468 522.806 811.034 523.387 810.712 524.101C810.404 524.801 810.25 525.641 810.25 526.621C810.25 527.419 810.383 528.154 810.649 528.826C810.915 529.498 811.307 530.079 811.825 530.569C812.343 531.045 812.973 531.416 813.715 531.682C814.457 531.948 815.304 532.081 816.256 532.081ZM816.256 507.658C815.388 507.658 814.625 507.791 813.967 508.057C813.323 508.309 812.784 508.659 812.35 509.107C811.916 509.555 811.587 510.073 811.363 510.661C811.153 511.249 811.048 511.879 811.048 512.551C811.048 513.209 811.139 513.853 811.321 514.483C811.517 515.099 811.818 515.652 812.224 516.142C812.644 516.618 813.183 517.003 813.841 517.297C814.499 517.591 815.304 517.738 816.256 517.738C817.194 517.738 817.992 517.591 818.65 517.297C819.322 517.003 819.861 516.618 820.267 516.142C820.687 515.652 820.988 515.099 821.17 514.483C821.366 513.853 821.464 513.209 821.464 512.551C821.464 511.879 821.352 511.249 821.128 510.661C820.918 510.073 820.596 509.555 820.162 509.107C819.728 508.659 819.182 508.309 818.524 508.057C817.88 507.791 817.124 507.658 816.256 507.658ZM820.771 519.271C822.647 519.831 824.068 520.734 825.034 521.98C826.014 523.226 826.504 524.801 826.504 526.705C826.504 528.021 826.252 529.211 825.748 530.275C825.258 531.339 824.558 532.249 823.648 533.005C822.752 533.747 821.674 534.321 820.414 534.727C819.154 535.133 817.768 535.336 816.256 535.336C814.744 535.336 813.358 535.133 812.098 534.727C810.838 534.321 809.753 533.747 808.843 533.005C807.947 532.249 807.247 531.339 806.743 530.275C806.253 529.211 806.008 528.021 806.008 526.705C806.008 524.801 806.491 523.226 807.457 521.98C808.437 520.734 809.865 519.831 811.741 519.271C810.187 518.683 809.018 517.808 808.234 516.646C807.45 515.47 807.058 514.077 807.058 512.467C807.058 511.347 807.275 510.304 807.709 509.338C808.157 508.358 808.78 507.511 809.578 506.797C810.39 506.083 811.363 505.523 812.497 505.117C813.631 504.711 814.884 504.508 816.256 504.508C817.628 504.508 818.881 504.711 820.015 505.117C821.149 505.523 822.115 506.083 822.913 506.797C823.725 507.511 824.348 508.358 824.782 509.338C825.23 510.304 825.454 511.347 825.454 512.467C825.454 514.077 825.062 515.47 824.278 516.646C823.494 517.808 822.325 518.683 820.771 519.271ZM831.043 513.055C831.253 511.655 831.645 510.423 832.219 509.359C832.793 508.295 833.514 507.406 834.382 506.692C835.25 505.964 836.244 505.418 837.364 505.054C838.498 504.69 839.716 504.508 841.018 504.508C842.32 504.508 843.517 504.697 844.609 505.075C845.701 505.439 846.632 505.964 847.402 506.65C848.186 507.322 848.795 508.134 849.229 509.086C849.663 510.038 849.88 511.088 849.88 512.236C849.88 513.202 849.761 514.056 849.523 514.798C849.285 515.54 848.942 516.191 848.494 516.751C848.06 517.311 847.528 517.787 846.898 518.179C846.268 518.557 845.561 518.872 844.777 519.124C846.695 519.656 848.137 520.524 849.103 521.728C850.069 522.918 850.552 524.43 850.552 526.264C850.552 527.678 850.286 528.952 849.754 530.086C849.222 531.206 848.494 532.158 847.57 532.942C846.646 533.712 845.568 534.307 844.336 534.727C843.118 535.133 841.816 535.336 840.43 535.336C838.848 535.336 837.49 535.147 836.356 534.769C835.222 534.377 834.256 533.838 833.458 533.152C832.66 532.452 831.995 531.619 831.463 530.653C830.945 529.673 830.504 528.602 830.14 527.44L831.925 526.684C832.387 526.488 832.835 526.432 833.269 526.516C833.703 526.6 834.018 526.845 834.214 527.251C834.424 527.671 834.662 528.147 834.928 528.679C835.208 529.197 835.579 529.694 836.041 530.17C836.503 530.632 837.077 531.024 837.763 531.346C838.463 531.668 839.338 531.829 840.388 531.829C841.396 531.829 842.278 531.668 843.034 531.346C843.79 531.01 844.42 530.583 844.924 530.065C845.428 529.533 845.806 528.945 846.058 528.301C846.31 527.657 846.436 527.02 846.436 526.39C846.436 525.606 846.338 524.885 846.142 524.227C845.946 523.569 845.568 523.009 845.008 522.547C844.462 522.071 843.699 521.7 842.719 521.434C841.739 521.168 840.465 521.035 838.897 521.035V518.053C840.185 518.039 841.27 517.906 842.152 517.654C843.048 517.402 843.769 517.052 844.315 516.604C844.861 516.156 845.253 515.624 845.491 515.008C845.743 514.392 845.869 513.706 845.869 512.95C845.869 512.124 845.743 511.403 845.491 510.787C845.239 510.171 844.882 509.66 844.42 509.254C843.972 508.834 843.433 508.526 842.803 508.33C842.187 508.12 841.515 508.015 840.787 508.015C840.059 508.015 839.387 508.12 838.771 508.33C838.155 508.54 837.609 508.834 837.133 509.212C836.657 509.59 836.258 510.038 835.936 510.556C835.614 511.074 835.383 511.634 835.243 512.236C835.047 512.768 834.795 513.125 834.487 513.307C834.193 513.489 833.766 513.531 833.206 513.433L831.043 513.055ZM864.941 531.913C865.907 531.913 866.782 531.759 867.566 531.451C868.35 531.129 869.022 530.695 869.582 530.149C870.142 529.603 870.576 528.952 870.884 528.196C871.192 527.44 871.346 526.621 871.346 525.739C871.346 524.773 871.192 523.912 870.884 523.156C870.59 522.386 870.17 521.735 869.624 521.203C869.092 520.671 868.448 520.265 867.692 519.985C866.936 519.705 866.096 519.565 865.172 519.565C864.206 519.565 863.338 519.733 862.568 520.069C861.798 520.391 861.14 520.832 860.594 521.392C860.048 521.938 859.628 522.582 859.334 523.324C859.04 524.066 858.893 524.843 858.893 525.655C858.893 526.579 859.026 527.426 859.292 528.196C859.558 528.966 859.95 529.624 860.468 530.17C860.986 530.716 861.616 531.143 862.358 531.451C863.114 531.759 863.975 531.913 864.941 531.913ZM863.009 516.058C862.771 516.366 862.533 516.667 862.295 516.961C862.071 517.241 861.854 517.521 861.644 517.801C862.316 517.367 863.058 517.031 863.87 516.793C864.696 516.555 865.585 516.436 866.537 516.436C867.727 516.436 868.861 516.632 869.939 517.024C871.017 517.416 871.962 517.99 872.774 518.746C873.6 519.502 874.251 520.44 874.727 521.56C875.203 522.68 875.441 523.968 875.441 525.424C875.441 526.81 875.189 528.112 874.685 529.33C874.181 530.534 873.467 531.584 872.543 532.48C871.633 533.362 870.541 534.062 869.267 534.58C867.993 535.084 866.579 535.336 865.025 535.336C863.485 535.336 862.092 535.091 860.846 534.601C859.614 534.111 858.557 533.418 857.675 532.522C856.807 531.612 856.135 530.52 855.659 529.246C855.183 527.958 854.945 526.53 854.945 524.962C854.945 523.618 855.232 522.204 855.806 520.72C856.394 519.222 857.318 517.626 858.578 515.932L866.117 505.831C866.327 505.551 866.621 505.32 866.999 505.138C867.377 504.942 867.811 504.844 868.301 504.844H871.955L863.009 516.058ZM897.872 531.115C898.32 531.115 898.67 531.248 898.922 531.514C899.174 531.766 899.3 532.102 899.3 532.522V535H879.056V533.593C879.056 533.313 879.112 533.019 879.224 532.711C879.336 532.389 879.525 532.102 879.791 531.85L889.325 522.295C890.123 521.497 890.844 520.727 891.488 519.985C892.132 519.243 892.678 518.508 893.126 517.78C893.574 517.038 893.917 516.282 894.155 515.512C894.407 514.742 894.533 513.93 894.533 513.076C894.533 512.236 894.4 511.501 894.134 510.871C893.868 510.227 893.504 509.695 893.042 509.275C892.58 508.855 892.034 508.54 891.404 508.33C890.774 508.12 890.095 508.015 889.367 508.015C888.639 508.015 887.967 508.12 887.351 508.33C886.749 508.54 886.21 508.834 885.734 509.212C885.258 509.59 884.859 510.038 884.537 510.556C884.215 511.074 883.984 511.634 883.844 512.236C883.648 512.768 883.396 513.125 883.088 513.307C882.794 513.489 882.36 513.531 881.786 513.433L879.644 513.055C879.84 511.655 880.225 510.423 880.799 509.359C881.373 508.295 882.094 507.406 882.962 506.692C883.83 505.964 884.824 505.418 885.944 505.054C887.078 504.69 888.296 504.508 889.598 504.508C890.914 504.508 892.125 504.704 893.231 505.096C894.351 505.474 895.317 506.027 896.129 506.755C896.941 507.483 897.578 508.372 898.04 509.422C898.502 510.458 898.733 511.634 898.733 512.95C898.733 514.07 898.565 515.113 898.229 516.079C897.907 517.031 897.459 517.941 896.885 518.809C896.325 519.677 895.667 520.524 894.911 521.35C894.169 522.162 893.378 522.988 892.538 523.828L884.894 531.64C885.482 531.486 886.07 531.36 886.658 531.262C887.26 531.164 887.827 531.115 888.359 531.115H897.872ZM913.709 532.081C914.661 532.081 915.508 531.948 916.25 531.682C916.992 531.416 917.622 531.045 918.14 530.569C918.658 530.079 919.05 529.498 919.316 528.826C919.582 528.154 919.715 527.419 919.715 526.621C919.715 525.641 919.554 524.801 919.232 524.101C918.91 523.387 918.476 522.806 917.93 522.358C917.384 521.896 916.747 521.56 916.019 521.35C915.291 521.126 914.521 521.014 913.709 521.014C912.883 521.014 912.106 521.126 911.378 521.35C910.65 521.56 910.013 521.896 909.467 522.358C908.921 522.806 908.487 523.387 908.165 524.101C907.857 524.801 907.703 525.641 907.703 526.621C907.703 527.419 907.836 528.154 908.102 528.826C908.368 529.498 908.76 530.079 909.278 530.569C909.796 531.045 910.426 531.416 911.168 531.682C911.91 531.948 912.757 532.081 913.709 532.081ZM913.709 507.658C912.841 507.658 912.078 507.791 911.42 508.057C910.776 508.309 910.237 508.659 909.803 509.107C909.369 509.555 909.04 510.073 908.816 510.661C908.606 511.249 908.501 511.879 908.501 512.551C908.501 513.209 908.592 513.853 908.774 514.483C908.97 515.099 909.271 515.652 909.677 516.142C910.097 516.618 910.636 517.003 911.294 517.297C911.952 517.591 912.757 517.738 913.709 517.738C914.647 517.738 915.445 517.591 916.103 517.297C916.775 517.003 917.314 516.618 917.72 516.142C918.14 515.652 918.441 515.099 918.623 514.483C918.819 513.853 918.917 513.209 918.917 512.551C918.917 511.879 918.805 511.249 918.581 510.661C918.371 510.073 918.049 509.555 917.615 509.107C917.181 508.659 916.635 508.309 915.977 508.057C915.333 507.791 914.577 507.658 913.709 507.658ZM918.224 519.271C920.1 519.831 921.521 520.734 922.487 521.98C923.467 523.226 923.957 524.801 923.957 526.705C923.957 528.021 923.705 529.211 923.201 530.275C922.711 531.339 922.011 532.249 921.101 533.005C920.205 533.747 919.127 534.321 917.867 534.727C916.607 535.133 915.221 535.336 913.709 535.336C912.197 535.336 910.811 535.133 909.551 534.727C908.291 534.321 907.206 533.747 906.296 533.005C905.4 532.249 904.7 531.339 904.196 530.275C903.706 529.211 903.461 528.021 903.461 526.705C903.461 524.801 903.944 523.226 904.91 521.98C905.89 520.734 907.318 519.831 909.194 519.271C907.64 518.683 906.471 517.808 905.687 516.646C904.903 515.47 904.511 514.077 904.511 512.467C904.511 511.347 904.728 510.304 905.162 509.338C905.61 508.358 906.233 507.511 907.031 506.797C907.843 506.083 908.816 505.523 909.95 505.117C911.084 504.711 912.337 504.508 913.709 504.508C915.081 504.508 916.334 504.711 917.468 505.117C918.602 505.523 919.568 506.083 920.366 506.797C921.178 507.511 921.801 508.358 922.235 509.338C922.683 510.304 922.907 511.347 922.907 512.467C922.907 514.077 922.515 515.47 921.731 516.646C920.947 517.808 919.778 518.683 918.224 519.271ZM953.004 535H948.573C948.251 535 947.992 534.916 947.796 534.748C947.6 534.566 947.446 534.377 947.334 534.181L939.543 521.77C939.431 522.12 939.298 522.421 939.144 522.673L931.563 534.181C931.423 534.377 931.262 534.566 931.08 534.748C930.898 534.916 930.667 535 930.387 535H926.208L936.519 519.481L926.649 504.844H931.08C931.402 504.844 931.64 504.893 931.794 504.991C931.948 505.089 932.081 505.236 932.193 505.432L939.816 517.255C939.928 516.891 940.082 516.555 940.278 516.247L947.418 505.516C947.544 505.292 947.684 505.124 947.838 505.012C947.992 504.9 948.188 504.844 948.426 504.844H952.689L942.756 519.292L953.004 535ZM980.484 535H976.053C975.731 535 975.472 534.916 975.276 534.748C975.08 534.566 974.926 534.377 974.814 534.181L967.023 521.77C966.911 522.12 966.778 522.421 966.624 522.673L959.043 534.181C958.903 534.377 958.742 534.566 958.56 534.748C958.378 534.916 958.147 535 957.867 535H953.688L963.999 519.481L954.129 504.844H958.56C958.882 504.844 959.12 504.893 959.274 504.991C959.428 505.089 959.561 505.236 959.673 505.432L967.296 517.255C967.408 516.891 967.562 516.555 967.758 516.247L974.898 505.516C975.024 505.292 975.164 505.124 975.318 505.012C975.472 504.9 975.668 504.844 975.906 504.844H980.169L970.236 519.292L980.484 535ZM1007.96 535H1003.53C1003.21 535 1002.95 534.916 1002.76 534.748C1002.56 534.566 1002.41 534.377 1002.29 534.181L994.504 521.77C994.392 522.12 994.259 522.421 994.105 522.673L986.524 534.181C986.384 534.377 986.223 534.566 986.041 534.748C985.859 534.916 985.628 535 985.348 535H981.169L991.48 519.481L981.61 504.844H986.041C986.363 504.844 986.601 504.893 986.755 504.991C986.909 505.089 987.042 505.236 987.154 505.432L994.777 517.255C994.889 516.891 995.043 516.555 995.239 516.247L1002.38 505.516C1002.5 505.292 1002.64 505.124 1002.8 505.012C1002.95 504.9 1003.15 504.844 1003.39 504.844H1007.65L997.717 519.292L1007.96 535ZM1035.44 535H1031.01C1030.69 535 1030.43 534.916 1030.24 534.748C1030.04 534.566 1029.89 534.377 1029.77 534.181L1021.98 521.77C1021.87 522.12 1021.74 522.421 1021.58 522.673L1014 534.181C1013.86 534.377 1013.7 534.566 1013.52 534.748C1013.34 534.916 1013.11 535 1012.83 535H1008.65L1018.96 519.481L1009.09 504.844H1013.52C1013.84 504.844 1014.08 504.893 1014.23 504.991C1014.39 505.089 1014.52 505.236 1014.63 505.432L1022.26 517.255C1022.37 516.891 1022.52 516.555 1022.72 516.247L1029.86 505.516C1029.98 505.292 1030.12 505.124 1030.28 505.012C1030.43 504.9 1030.63 504.844 1030.87 504.844H1035.13L1025.2 519.292L1035.44 535Z" fill="white"/>
</svg>
