<svg width="501" height="368" viewBox="0 0 501 368" fill="none" xmlns="http://www.w3.org/2000/svg">
<path d="M310.371 70.2237L314.295 71.4272L316.929 65.3287L322.882 66.3838L325.599 62.1409L327.749 63.5179L324.113 69.191L318.471 68.1918L315.731 74.5366L309.825 72.723L310.371 70.2237" fill="#50BFA5"/>
<path d="M58.7876 289.565L62.7115 290.769L65.3451 284.67L71.2981 285.725L74.0157 281.482L76.1624 282.859L72.5295 288.53L66.8872 287.533L64.1472 293.878L58.2419 292.065L58.7876 289.565" fill="#50BFA5"/>
<path d="M334.544 361.765C334.544 361.765 355.479 290.811 357.158 275.16C358.837 259.507 347.13 264.357 347.13 264.357C347.13 264.357 356.979 234.533 349.859 227.455C342.736 220.377 336.313 233.571 336.313 233.571C336.313 233.571 334.158 197.366 326.565 197.355C312.425 197.329 312.703 236.837 312.703 236.837C312.703 236.837 309.095 221.371 301.521 225.611C290.103 232.006 306.478 263.005 306.478 263.005C306.478 263.005 291.927 263.014 286.817 270.352C277.645 283.515 334.544 361.765 334.544 361.765Z" fill="#50BFA5"/>
<path d="M327.701 352.375C327.701 352.375 388.051 342.283 401.177 331.589C414.303 320.895 401.311 316.075 401.311 316.075C401.311 316.075 431.628 300.534 431.278 289.966C430.925 279.398 415.865 284.771 415.865 284.771C415.865 284.771 441.409 255.642 435.361 250.109C424.099 239.806 394.566 270.086 394.566 270.086C394.566 270.086 403.335 255.686 394.102 253.405C380.172 249.971 369.895 285.476 369.895 285.476C369.895 285.476 372.507 271.455 362.904 273.324C345.672 276.674 327.701 352.375 327.701 352.375" fill="#50BFA5"/>
<path d="M362.904 273.324C372.529 271.583 369.895 285.476 369.895 285.476C369.895 285.476 380.172 249.971 394.102 253.405C403.335 255.686 394.566 270.086 394.566 270.086C394.566 270.086 424.099 239.806 435.361 250.109L327.903 352.392C329.817 342.622 346.763 276.241 362.904 273.324" fill="#3C8F7C"/>
<path d="M310.531 360.699C310.531 360.699 342.313 328.379 358.317 325.012C374.323 321.648 371.443 333.033 371.443 333.033C371.443 333.033 403.198 305.264 410.558 311.992C417.916 318.72 409.957 325.216 409.957 325.216C409.957 325.216 436.408 320.531 440.192 329.21C446.01 342.546 402.509 349.806 402.509 349.806C402.509 349.806 420.74 351.071 416.511 359.434C410.136 372.045 310.531 360.699 310.531 360.699Z" fill="#355389"/>
<path d="M440.192 329.21C436.408 320.531 409.957 325.216 409.957 325.216C409.957 325.216 417.917 318.72 410.559 311.992C403.198 305.264 372.431 329.258 372.431 329.258C372.431 329.258 379.685 315.39 363.682 318.757C347.676 322.124 310.531 360.699 310.531 360.699L440.192 329.21Z" fill="#466EB6"/>
<path d="M259.932 27.3579C270.632 29.1155 273.808 43.1569 264.914 49.4373C263.316 50.5652 262.21 52.2612 261.74 54.1616L260.122 60.6911C259.674 62.4907 257.922 63.6466 256.092 63.3471L252.039 62.6782C250.209 62.3788 248.916 60.7219 249.073 58.8747C249.635 52.1297 250.329 49.6836 248.138 46.6777C241.726 37.8812 249.232 25.5946 259.932 27.3579Z" fill="#F7CC7F"/>
<path d="M253.845 36.7924C254.178 37.5593 254.052 38.5388 253.973 39.6667C253.097 39.1686 252.081 38.5444 251.751 37.632C251.519 36.9911 251.779 36.0871 252.431 35.9192C252.504 35.9024 253.609 36.255 253.845 36.7924V36.7924ZM263.761 40.9346C263.215 41.5195 262.302 41.7798 260.97 41.7182C261.2 40.7359 261.541 39.8543 262.216 39.2273C263.738 37.8112 264.673 39.9494 263.761 40.9346ZM258.84 55.9023C259.537 50.1257 260.514 44.0244 260.847 42.2948C266.979 42.6334 264.648 36.1711 261.818 38.7991C261.012 39.5464 260.632 40.5623 260.38 41.6762C258.345 41.4915 256.352 40.9122 254.539 39.9746C254.637 38.55 254.777 37.4697 254.379 36.5573C253.777 35.1803 252.034 34.8053 251.323 36.1487C251.057 36.6525 251.009 37.2962 251.203 37.8307C251.614 38.9698 252.851 39.7227 253.931 40.3105C253.607 44.9032 253.162 49.5324 252.599 54.0888L253.176 54.1615C253.73 49.6779 254.172 45.1243 254.494 40.6043C256.296 41.4999 258.255 42.0625 260.262 42.25C259.842 44.4638 258.916 50.4084 258.261 55.8324L258.84 55.9023" fill="#FAE0B2"/>
<path d="M261.788 53.9993C261.774 54.0525 261.754 54.1056 261.74 54.1616L260.122 60.6911C259.675 62.4907 257.923 63.6466 256.092 63.3471L252.039 62.6782C250.209 62.3788 248.916 60.7219 249.073 58.8747C249.322 55.8745 249.599 53.725 249.635 52.001L261.788 53.9993" fill="#96D9C9"/>
<path d="M267.864 22.4795L271.063 16.6385C271.37 16.076 271.163 15.3651 270.598 15.0572C270.033 14.7466 269.324 14.9537 269.014 15.519L265.815 21.3573C265.507 21.9226 265.714 22.6335 266.279 22.9413C266.848 23.252 267.556 23.0421 267.864 22.4795Z" fill="#FAE0B2"/>
<path d="M274.855 36.6049L281.829 35.9948C282.47 35.9388 282.946 35.3734 282.887 34.7297C282.831 34.0888 282.266 33.613 281.625 33.669L274.651 34.2791C274.01 34.3351 273.534 34.9004 273.59 35.5442C273.646 36.1851 274.211 36.6609 274.855 36.6049Z" fill="#FAE0B2"/>
<path d="M281.768 57.9818C282.221 57.5228 282.218 56.7868 281.759 56.3334C280.044 54.6401 278.16 53.1008 276.156 51.763C275.622 51.4047 274.897 51.5475 274.539 52.0848C274.18 52.6194 274.323 53.3443 274.86 53.7025C276.741 54.9592 278.51 56.4033 280.119 57.993C280.576 58.4436 281.314 58.4436 281.768 57.9818" fill="#FAE0B2"/>
<path d="M250.634 22.1634C251.256 21.9983 251.625 21.3573 251.46 20.736C250.671 17.7805 250.187 14.7299 250.021 11.6764C249.985 11.0327 249.437 10.5373 248.793 10.5737C248.149 10.6073 247.656 11.1559 247.69 11.7996C247.864 15.0182 248.373 18.2255 249.204 21.3378C249.372 21.9647 250.016 22.3285 250.634 22.1634" fill="#FAE0B2"/>
<path d="M243.453 31.1276C243.638 30.509 243.291 29.8597 242.672 29.6722L235.423 27.4892C234.805 27.3017 234.155 27.6515 233.968 28.27C233.783 28.8858 234.133 29.5379 234.749 29.7226L241.997 31.9084C242.613 32.0931 243.265 31.7461 243.453 31.1276Z" fill="#FAE0B2"/>
<path d="M231.544 50.4167C231.648 50.4167 231.754 50.4028 231.86 50.3748C234.374 49.6667 236.814 48.6871 239.12 47.4641C239.688 47.1618 239.904 46.4537 239.602 45.8856C239.299 45.3174 238.594 45.1019 238.026 45.4042C235.868 46.5489 233.582 47.4669 231.228 48.1274C230.609 48.3009 230.248 48.9446 230.422 49.5659C230.567 50.0809 231.035 50.4167 231.544 50.4167" fill="#FAE0B2"/>
<path d="M125.362 101.998L129.02 93.3472L138.216 91.458C139.263 91.2425 139.61 89.9187 138.801 89.219L131.707 83.0673L132.753 73.7363C132.871 72.6727 131.721 71.9366 130.803 72.488L122.762 77.3355L114.209 73.4564C113.235 73.017 112.177 73.8818 112.42 74.9257L114.545 84.0721L108.214 91.0074C107.492 91.7967 107.99 93.0701 109.056 93.1625L118.412 93.9685L123.05 102.132C123.579 103.062 124.945 102.981 125.362 101.998Z" fill="#F7CC7F"/>
<path d="M67.1393 72.3226L68.6422 78.3763L78.6534 77.0329L81.9419 85.6139L89.5966 85.835L89.4846 89.7085L79.2496 89.4146L76.1289 81.2842L65.7175 82.6808L63.4561 73.568L67.1393 72.3226" fill="#F48C7F"/>
<path d="M156.316 362.56H332.26C338.98 362.56 344.427 356.909 344.427 349.94V342.434C344.427 335.465 338.98 329.814 332.26 329.814H156.316C164.363 338.938 164.502 352.882 156.638 362.179L156.316 362.56Z" fill="#B75742"/>
<path d="M159.031 333.568H256.621C263.341 333.568 268.787 339.218 268.787 346.187C268.787 353.159 263.341 358.807 256.621 358.807H159.022C163.584 351.065 163.576 341.289 159.031 333.568Z" fill="#FAE0B2"/>
<path d="M218.127 307.072C217.872 306.593 218.261 306.036 218.852 306.036H311.95C319.249 306.036 325.163 311.359 325.163 317.928C325.163 324.494 319.249 329.82 311.95 329.82H218.826C218.233 329.82 217.841 329.26 218.102 328.779C221.788 321.905 221.779 313.915 218.127 307.072Z" fill="#86B1F2"/>
<path d="M218.714 308.25H264.855C273.419 308.25 280.36 312.711 280.36 318.214C280.36 323.719 273.419 328.18 264.855 328.18H218.412C221.586 321.838 221.673 314.617 218.714 308.25" fill="#F7CC7F"/>
<path d="M230.632 312.974H236.641C237.931 312.974 238.98 313.408 238.98 313.943V314.029H230.632V312.974" fill="#B75742"/>
<path d="M225.504 315.403C225.504 314.06 227.074 312.974 229.011 312.974H236.722C235.252 312.974 234.063 313.8 234.063 314.816L234.099 340.869L229.84 337.519L225.496 340.869L225.504 315.403" fill="#F47458"/>
<path d="M235.244 305.18H289.414C294.217 305.18 298.11 300.556 298.11 294.855C298.11 289.154 294.217 284.533 289.414 284.533H235.244C239.383 290.257 239.546 298.65 235.63 304.592L235.244 305.18Z" fill="#FAE0B2"/>
<path d="M298.104 294.855C298.104 289.154 294.119 284.533 289.201 284.533H234.211C233.954 284.533 233.747 284.29 233.749 283.993C233.752 283.699 233.959 283.464 234.211 283.464H321.449C326.873 283.464 331.272 288.563 331.272 294.855C331.272 301.149 326.873 306.249 321.449 306.249H234.211C233.959 306.249 233.752 306.011 233.749 305.72C233.747 305.42 233.956 305.18 234.211 305.18H289.201C294.119 305.18 298.104 300.556 298.104 294.855" fill="#466EB6"/>
<path d="M244.704 289.605H250.713C252.003 289.605 253.053 290.033 253.053 290.556V290.643H244.704V289.605Z" fill="#184655"/>
<path d="M239.576 291.989C239.576 290.674 241.146 289.605 243.083 289.605H250.794C249.324 289.605 248.135 290.416 248.135 291.413L248.171 316.963L243.912 313.677L239.568 316.963L239.576 291.989" fill="#3C8F7C"/>
<path d="M148.936 131.791L140.94 129.686L146.358 201.978L155.952 202.297L151.113 134.416C151.024 133.165 150.148 132.11 148.936 131.791" fill="#184655"/>
<path d="M145.642 204.038C145.821 204.055 146.003 204.052 146.19 204.03C147.777 203.842 148.953 202.264 148.815 200.503L143.492 132.527C143.355 130.767 141.956 129.49 140.366 129.678C138.779 129.865 137.604 131.444 137.741 133.207L143.064 201.184C143.187 202.737 144.293 203.915 145.642 204.038" fill="#F7CC7F"/>
<path d="M219.241 207.66C219.238 207.71 219.235 207.758 219.229 207.808C218.98 210.573 216.836 212.644 214.446 212.429L146.909 206.384C144.516 206.171 142.781 203.756 143.03 200.99C143.041 200.873 143.055 200.758 143.075 200.643L219.241 207.66Z" fill="#F7CC7F"/>
<path d="M172.213 280.674C176.635 283.126 190.153 278.827 190.153 278.438C190.346 282.132 205.289 318.292 205.289 318.292L205.278 329.417C205.278 329.417 174.488 330.884 174.931 328.163C175.373 325.443 177.03 327.212 183.17 322.073C183.716 321.617 192.339 319.616 190.008 314.511C185.306 304.231 175.325 287.091 172.213 280.674Z" fill="#F7A491"/>
<path d="M206.291 329.815L172.585 329.823C171.371 329.7 171.085 328.709 171.516 328.107C172.401 326.87 178.86 323.948 183.201 322.012C190.763 322.893 204.057 319.985 205.275 318.261C208.477 322.549 206.968 329.675 206.291 329.815" fill="#3C8F7C"/>
<path d="M213.682 254.713C214.138 253.344 184.665 240.836 183.346 242.267C181.012 244.794 199.294 292.244 199.294 292.244L178.289 298.662C178.289 298.662 156.456 243.842 157.368 233.814C158.278 223.789 169.216 212.395 192.915 219.686C216.615 226.98 213.682 254.713 213.682 254.713" fill="#355389"/>
<path d="M152.658 286.909C157.634 286.005 164.083 285.748 169.246 285.658C168.636 290.254 165.684 313.822 166.224 315.272C168.41 321.138 173.263 323.884 173.263 323.884C173.263 323.884 150.377 344.533 148.997 342.148C147.615 339.764 150.016 340.083 151.511 332.216C151.642 331.516 154.953 320.534 155.157 314.611C155.549 303.316 152.829 293.184 152.658 286.909" fill="#F7A491"/>
<path d="M160.002 209.803C163.196 208.102 171.483 208.04 180.595 208.631C198.365 209.784 215.905 213.28 232.806 218.88L244.116 222.625L244.08 211.029C244.08 211.029 280.061 205.009 281.315 213.926C283.198 227.355 280.858 254.62 268.871 260.705C231.634 279.607 179.451 230.593 179.26 237.005C179.009 245.616 171.749 277.665 169.89 291.695C164.729 291.785 155.86 291.782 152.012 290.898C151.264 263.411 150.915 214.654 160.002 209.803" fill="#466EB6"/>
<path d="M173.962 324.368L148.233 344.917C147.214 345.594 146.369 345.009 146.319 344.27C146.218 342.75 149.364 336.397 151.494 332.149C157.903 328.037 166.358 317.321 166.204 315.216C168.919 317.505 174.396 323.828 173.962 324.368Z" fill="#3C8F7C"/>
<path d="M232.193 97.716C233.055 89.815 233.968 81.8862 240.514 76.0955C245.815 71.4104 252.551 70.6155 259.215 73.1232C278.093 80.2265 268.367 96.9911 292.437 113.896C299.918 119.149 308.16 122.742 313.791 129.815C321.675 139.717 318.697 151.623 311.516 159.574C277.141 197.615 238.768 146.241 236.011 133.907C233.962 124.732 231.636 102.801 232.193 97.716" fill="#13375B"/>
<path d="M239.173 142.138C241.981 136.963 244.872 132.854 244.872 132.854C247.785 127.676 255.308 125.06 255.308 125.06C255.308 125.06 257.824 125.11 260.716 125.253C260.895 125.731 261.077 126.073 261.261 126.21C262.347 127.024 268.572 125.975 272.591 128.704C286.067 140.254 282.339 196.243 281.281 213.926L240.24 214.315C240.24 214.315 245.415 176.266 237.077 166.49C231.27 159.683 235.006 149.817 239.173 142.138Z" fill="#50BFA5"/>
<path d="M257.67 106.118C257.67 106.118 259.926 122.228 261.502 126.143C263.078 130.059 252.84 138.43 244.32 140.974C235.801 143.515 246.923 132.326 246.571 128.139C246.218 123.955 244.667 104.139 244.667 104.139L257.67 106.118Z" fill="#F7A491"/>
<path d="M245.098 109.821C244.849 106.543 244.667 104.139 244.667 104.139L257.671 106.118C257.671 106.118 257.998 108.01 258.362 110.685C253.089 113.744 248.351 112.779 245.098 109.821" fill="#F47458"/>
<path d="M253.593 76.6917C253.593 76.6917 258.717 77.8476 261.883 82.6755C265.045 87.5033 267.217 101.721 256.795 108.357C246.375 114.993 238.27 105.606 238.135 96.451C238.001 87.2934 239.963 75.0768 253.593 76.6917Z" fill="#F7A491"/>
<path d="M235.748 93.585C236.638 95.7932 238.401 97.1646 239.688 96.6468C240.976 96.129 241.298 93.918 240.408 91.7098C239.521 89.4988 237.757 88.1274 236.47 88.6479C235.183 89.1657 234.861 91.3767 235.748 93.585Z" fill="#F7A491"/>
<path d="M252.056 76.3922C252.056 76.3922 258.588 91.0465 264.329 92.3535C270.069 93.6634 269.985 101.038 269.985 101.038C269.985 101.038 269.859 84.0076 264.477 80.1033C259.098 76.1963 252.056 76.3922 252.056 76.3922" fill="#13375B"/>
<path d="M262.048 95.4013C261.292 97.7803 261.983 100.123 263.593 100.635C265.202 101.144 267.119 99.6303 267.875 97.2513C268.63 94.8696 267.939 92.527 266.33 92.0149C264.721 91.5055 262.803 93.0196 262.048 95.4013Z" fill="#F7A491"/>
<path d="M188.645 201.2C191.108 200.31 194.771 200.198 194.71 199.873C194.463 198.558 183.584 202.779 185.054 200.859C185.874 199.789 194.013 196.003 195.994 196.627C197.914 197.234 210.52 200.772 210.52 200.772L244.975 192.697C244.975 192.697 253.671 172.935 254.522 155.955C261.709 156.929 266.604 158.704 272.851 162.171C269.839 178.41 262.515 204.729 254.418 209.669C251.015 211.746 210.349 207.181 210.349 207.181C210.349 207.181 201.387 206.548 199.924 205.986C198.813 205.558 195.952 203.948 194.399 203.506C190.861 202.507 184.564 205.02 184.544 204.326C184.53 203.822 186.129 202.11 188.645 201.2" fill="#F7A491"/>
<path d="M254.309 137.814C254.642 132.591 256.621 127.545 262.179 125.922C265.625 124.914 269.49 125.877 272.244 128.127C275.518 130.803 276.433 135.093 276.417 139.154C276.383 148.379 275.753 157.939 274.068 167.021C267.822 163.554 260.528 161.469 253.338 160.495C253.341 160.442 253.872 144.718 254.309 137.814" fill="#96D9C9"/>
<path d="M361.062 147.674L414.48 137.727C415.551 137.526 416.26 136.496 416.061 135.421L409.369 99.4876C409.167 98.4156 408.138 97.7076 407.063 97.9063L353.648 107.853C352.574 108.052 351.866 109.085 352.067 110.156L358.759 146.093C358.958 147.164 359.99 147.873 361.062 147.674Z" fill="#F7CC7F"/>
<path d="M386.489 106.594L402.75 103.566C403.822 103.364 404.53 102.334 404.331 101.259L403.312 95.7934C403.111 94.7186 402.081 94.0106 401.006 94.2121L384.748 97.2403C383.674 97.439 382.968 98.4718 383.167 99.5437L384.186 105.012C384.384 106.084 385.417 106.792 386.489 106.594Z" fill="#F7CC7F"/>
<path d="M358.63 146.3C358.907 147.282 359.89 147.892 360.894 147.704L414.659 137.693C415.658 137.506 416.355 136.591 416.265 135.577L413.452 103.367C413.402 102.812 413.122 102.303 412.68 101.964C412.235 101.628 411.67 101.494 411.121 101.595L351.393 112.717C350.847 112.821 350.368 113.145 350.077 113.618C349.783 114.091 349.702 114.662 349.853 115.197L358.63 146.3Z" fill="#FAE0B2"/>
<path d="M113.627 28.6003L122.773 31.0996L124.743 20.0137L121.752 19.482L120.363 27.2877L114.427 25.6672L113.627 28.6003" fill="#50BFA5"/>
<path d="M405.042 180.834C402.75 180.646 399.235 181.656 397.656 182.725C397.421 182.947 395.607 183.669 393.721 186.792L394.146 187.086C396.134 185.004 397.471 184.536 399.067 184.058C401.692 183.383 404.339 183.887 404.555 184.004L405.042 180.834Z" fill="#355389"/>
<path d="M393.934 186.938C393.934 186.938 407.891 189.266 406.59 200.17C405.288 211.074 390.564 219.554 377.421 212.812C359.744 203.741 366.727 180.677 379.31 178.894C391.891 177.111 393.934 186.938 393.934 186.938" fill="#F47458"/>
<path d="M388.012 182.138C388.012 182.138 384.371 178.399 376.394 181.799C368.415 185.2 367.838 201.06 374.953 200.139C382.07 199.219 393.702 184.424 388.012 182.138" fill="#F48C7F"/>
<path d="M292 37.2878L349.403 57.7635C351.253 58.424 353.287 57.4585 353.948 55.6085L364.541 25.908C365.202 24.058 364.236 22.0205 362.386 21.3628L304.984 0.884293C303.134 0.226584 301.099 1.18936 300.438 3.03934L289.845 32.7426C289.185 34.5926 290.147 36.6273 292 37.2878" fill="#86B1F2"/>
<path d="M330.047 29.6527C327.936 35.5693 331.02 42.0792 336.94 44.1895C342.856 46.2998 349.364 43.2155 351.477 37.2962C353.587 31.3796 350.5 24.8724 344.583 22.7594C338.667 20.6491 332.157 23.7361 330.047 29.6527Z" fill="white"/>
<path d="M339.131 28.0604C338.507 29.8068 339.42 31.7239 341.163 32.3481C342.91 32.9694 344.827 32.0598 345.451 30.3161C346.072 28.5697 345.163 26.6498 343.416 26.0284C341.673 25.4071 339.753 26.3167 339.131 28.0604Z" fill="#86B1F2"/>
<path d="M333.665 37.4136L343.76 41.0156L344.166 39.8821C344.902 37.8166 343.825 35.5413 341.757 34.8052L339.148 33.8732C337.08 33.1371 334.807 34.2146 334.068 36.2829L333.665 37.4136" fill="#86B1F2"/>
<path d="M328.633 23.4424C329.243 23.4424 329.792 23.0561 329.999 22.4796C330.267 21.7267 329.873 20.8955 329.12 20.6268L304.026 11.6764C303.87 11.6204 303.704 11.5896 303.539 11.5896C302.926 11.5896 302.378 11.9787 302.174 12.5552C301.905 13.3081 302.297 14.1393 303.052 14.408L328.143 23.3584C328.303 23.4144 328.465 23.4424 328.633 23.4424Z" fill="white"/>
<path d="M321.857 29.7004C322.47 29.7004 323.019 29.3114 323.226 28.7349C323.495 27.982 323.1 27.1508 322.344 26.8821L302.747 19.8908C302.591 19.8348 302.425 19.8068 302.26 19.8068C301.647 19.8068 301.099 20.1931 300.895 20.7696C300.763 21.1334 300.783 21.5281 300.948 21.8779C301.116 22.2277 301.407 22.4936 301.773 22.6224L321.37 29.6137C321.527 29.6697 321.692 29.7004 321.857 29.7004Z" fill="white"/>
<path d="M202.809 261.323H341.415C345.72 261.323 349.207 264.813 349.207 269.118V275.672C349.207 279.977 345.72 283.467 341.415 283.467H202.809L202.882 283.391C208.81 277.22 208.779 267.458 202.809 261.323Z" fill="#F47458"/>
<path d="M205.261 264.6H279.358C283.663 264.6 287.153 268.09 287.153 272.395C287.153 276.699 283.663 280.189 279.358 280.189H205.264C207.987 275.362 207.984 269.423 205.261 264.6Z" fill="#FAE0B2"/>
<path d="M89.367 261.961L99.8735 235.603C100.402 234.276 99.756 232.773 98.4293 232.244L60.6237 217.176C59.2971 216.647 57.7942 217.293 57.2652 218.62L46.7587 244.978C46.2297 246.305 46.8762 247.808 48.2028 248.337L86.0085 263.405C87.3351 263.934 88.838 263.288 89.367 261.961Z" fill="#FAE0B2"/>
<path d="M53.7022 246.719L63.1453 223.033C63.2964 222.653 63.1117 222.222 62.731 222.071C62.3504 221.919 61.9194 222.104 61.7655 222.485L52.3253 246.171C52.1741 246.551 52.3588 246.982 52.7394 247.134C53.1201 247.285 53.5511 247.1 53.7022 246.719" fill="#466EB6"/>
<path d="M58.2026 243.599L65.9524 224.153C66.1035 223.772 65.9188 223.341 65.5382 223.19C65.1576 223.036 64.7266 223.224 64.5754 223.604L56.8228 243.05C56.6717 243.431 56.8564 243.862 57.2371 244.016C57.6177 244.167 58.0487 243.982 58.2026 243.599" fill="#466EB6"/>
<path d="M59.3194 248.958L68.7625 225.272C68.9136 224.892 68.7289 224.461 68.3483 224.31C67.9676 224.156 67.5338 224.343 67.3827 224.724L57.9424 248.41C57.7913 248.79 57.976 249.221 58.3567 249.373C58.7373 249.524 59.1683 249.339 59.3194 248.958" fill="#466EB6"/>
<path d="M64.2815 244.673L71.5695 226.392C71.7206 226.011 71.5359 225.58 71.1552 225.429C70.7746 225.275 70.3436 225.463 70.1924 225.843L62.9045 244.125C62.7533 244.505 62.938 244.936 63.3187 245.087C63.6993 245.239 64.1303 245.054 64.2815 244.673Z" fill="#466EB6"/>
<path d="M53.957 220.506L54.1474 220.03C54.2173 219.854 54.4076 219.764 54.5728 219.832L58.1609 221.262C58.326 221.326 58.4043 221.525 58.3344 221.698L58.144 222.177C58.074 222.35 57.8837 222.44 57.7186 222.376L54.1306 220.945C53.9654 220.878 53.887 220.682 53.957 220.506" fill="#355389"/>
<path d="M53.1425 222.546L53.3328 222.071C53.4028 221.894 53.5931 221.805 53.761 221.872L57.349 223.302C57.5141 223.366 57.5897 223.562 57.5197 223.739L57.3294 224.217C57.2594 224.391 57.0691 224.48 56.904 224.416L53.316 222.986C53.1509 222.919 53.0725 222.723 53.1425 222.546" fill="#355389"/>
<path d="M52.3309 224.587L52.5212 224.111C52.5912 223.934 52.7815 223.845 52.9466 223.912L56.5346 225.342C56.6997 225.407 56.7781 225.603 56.7081 225.779L56.5178 226.257C56.4478 226.431 56.2575 226.521 56.0924 226.456L52.5016 225.023C52.3393 224.959 52.2609 224.763 52.3309 224.587" fill="#355389"/>
<path d="M51.5165 226.627L51.7068 226.151C51.7768 225.975 51.9671 225.885 52.1322 225.952L55.7203 227.383C55.8854 227.447 55.9638 227.643 55.8938 227.819L55.7035 228.298C55.6335 228.471 55.4432 228.561 55.2781 228.494L51.69 227.064C51.5249 226.999 51.4465 226.803 51.5165 226.627Z" fill="#355389"/>
<path d="M50.7049 228.667L50.8952 228.192C50.9652 228.015 51.1555 227.926 51.3207 227.993L54.9087 229.423C55.0738 229.487 55.1494 229.683 55.0822 229.86L54.8919 230.335C54.8219 230.512 54.6288 230.601 54.4637 230.534L50.8756 229.104C50.7105 229.04 50.635 228.844 50.7049 228.667" fill="#355389"/>
<path d="M49.8905 230.707L50.0808 230.232C50.1507 230.055 50.3411 229.966 50.5062 230.033L54.0942 231.463C54.2593 231.527 54.3377 231.723 54.2677 231.9L54.0774 232.375C54.0075 232.552 53.8171 232.641 53.652 232.574L50.064 231.144C49.8989 231.08 49.8205 230.884 49.8905 230.707Z" fill="#355389"/>
<path d="M49.0787 232.748L49.269 232.272C49.339 232.096 49.5293 232.006 49.6944 232.073L53.2825 233.503C53.4476 233.568 53.5231 233.764 53.4532 233.94L53.2629 234.416C53.1929 234.592 53.0026 234.682 52.8374 234.614L49.2494 233.184C49.0843 233.12 49.0087 232.924 49.0787 232.748Z" fill="#355389"/>
<path d="M48.2643 234.788L48.4546 234.312C48.5246 234.136 48.7149 234.047 48.88 234.114L52.4681 235.544C52.6332 235.608 52.7116 235.804 52.6416 235.98L52.4513 236.456C52.3814 236.633 52.191 236.722 52.0259 236.655L48.4379 235.225C48.2727 235.16 48.1943 234.964 48.2643 234.788Z" fill="#355389"/>
<path d="M47.4528 236.828L47.6431 236.353C47.7131 236.176 47.9034 236.087 48.0685 236.154L51.6565 237.584C51.8216 237.648 51.8972 237.844 51.8272 238.021L51.6369 238.496C51.5669 238.673 51.3766 238.762 51.2115 238.695L47.6235 237.265C47.4584 237.201 47.3828 237.005 47.4528 236.828Z" fill="#355389"/>
<path d="M46.6383 238.869L46.8286 238.393C46.8986 238.217 47.0889 238.127 47.254 238.194L50.842 239.624C51.0071 239.689 51.0855 239.885 51.0155 240.061L50.8252 240.537C50.7552 240.713 50.5649 240.803 50.3998 240.735L46.8118 239.305C46.6467 239.241 46.5683 239.045 46.6383 238.869Z" fill="#355389"/>
<path d="M45.8265 240.909L46.0169 240.43C46.0841 240.257 46.2744 240.167 46.4423 240.234L50.0304 241.665C50.1955 241.729 50.2711 241.925 50.2011 242.101L50.0108 242.577C49.9408 242.753 49.7505 242.843 49.5854 242.776L45.9973 241.346C45.8321 241.281 45.7566 241.085 45.8265 240.909Z" fill="#355389"/>
<path d="M45.0123 242.949L45.2026 242.471C45.2726 242.297 45.4629 242.208 45.628 242.272L49.216 243.705C49.3811 243.769 49.4595 243.965 49.3895 244.142L49.1992 244.617C49.1292 244.794 48.9389 244.883 48.7738 244.816L45.1858 243.386C45.0206 243.319 44.9423 243.126 45.0123 242.949" fill="#355389"/>
<path d="M35.099 240.85L50.1032 262.216C50.1367 262.263 50.1647 262.317 50.1815 262.373L51.7124 267.066C51.8888 267.612 51.2591 268.065 50.8001 267.718L46.7838 264.69C46.7334 264.654 46.6914 264.609 46.655 264.558L31.6117 243.137C31.4185 242.862 31.4941 242.485 31.7768 242.305L34.3013 240.691C34.5672 240.523 34.9171 240.593 35.099 240.85" fill="#B75742"/>
<path d="M46.6718 264.581L46.7082 264.634L50.5845 267.556L51.6396 266.848L50.1899 262.398C49.0564 263.019 47.6962 263.657 46.6718 264.581" fill="#F7CC7F"/>
<path d="M187.114 9.54089C184.953 11.2649 181.194 16.8121 176.403 20.7052C173.598 22.9834 171.438 22.404 167.858 22.8378C150.875 24.8893 155.476 28.3598 153.439 28.7012C154.018 30.0334 159.311 41.2817 160.299 43.5542C161.211 45.6505 162.787 46.5881 165.071 46.2747C168.583 45.7877 172.126 45.4266 175.586 44.6766C184.449 42.7538 189.381 38.3206 195.734 32.9385C197.419 31.5084 197.833 29.7284 196.96 27.7076C192.893 18.3122 187.553 10.4057 187.114 9.54089" fill="#466EB6"/>
<path d="M151.6 42.2333C151.676 45.9333 151.393 46.675 152.983 46.1152C153.94 45.7766 154.866 45.3372 155.77 44.8698C156.406 44.5423 156.431 44.1085 155.913 43.5879C155.16 42.8295 154.385 42.0934 153.632 41.3573C154.184 39.9048 153.551 38.2171 152.194 37.4223C151.917 37.2599 152.118 37.6042 149.753 32.1606C157.576 31.195 163.095 30.5485 172.636 29.3758C175.185 29.0624 177.455 28.0688 179.428 26.4175C186.246 20.7165 193.061 15.0126 199.871 9.3059C200.794 8.53064 200.912 7.39435 200.178 6.52113C199.616 5.85503 198.874 5.82146 198.074 5.92221C195.896 6.19649 174.545 8.84691 172.375 9.1016C169.526 9.43465 167.019 10.5066 164.816 12.351C158.121 17.9597 151.407 23.546 144.704 29.1407C143.783 29.9104 143.534 30.6157 143.859 31.4693C144.214 32.4069 144.99 32.8547 146.16 32.6028C147.008 32.4181 147.38 32.6756 147.671 33.4592C148.986 36.9968 149.904 37.7805 149.588 39.0735C149.342 40.0727 150.528 41.7995 151.6 42.2333" fill="#86B1F2"/>
<path d="M116.176 293.654L112.286 297.366C103.081 306.145 95.5745 316.546 90.1449 328.046L89.5488 329.308C89.5488 329.308 79.3585 330.209 77.9368 320.996C86.876 310.903 94.2339 300.125 100.307 288.138L102.149 283.831L116.176 293.654Z" fill="#466EB6"/>
<path d="M102.16 283.82C101.659 284.536 104.391 287.307 108.264 290.005C112.135 292.706 115.698 294.346 116.196 293.629C116.697 292.913 113.946 290.109 110.075 287.411C106.204 284.71 102.658 283.1 102.16 283.82Z" fill="#86B1F2"/>
<path d="M102.143 283.845L102.154 283.831C102.154 283.831 109.913 290.397 113.109 291.066L112.121 292.409C110.954 291.779 109.627 290.959 108.264 290.005C104.435 287.338 101.723 284.601 102.143 283.845" fill="#355389"/>
<path d="M91.7793 302.907C91.7653 304.038 92.1991 308.925 100.327 310.962C99.7921 311.69 99.2659 312.426 98.7509 313.167C93.6068 311.645 91.2923 309.006 90.2511 306.993C90.0888 306.677 89.8901 306.249 89.7586 305.919C90.4443 304.922 91.1187 303.92 91.7793 302.907" fill="#B75742"/>
<path d="M99.5963 309.518L111.558 309.089L108.723 311.496L110.416 314.569L99.0953 311.684L99.5963 309.518" fill="#B75742"/>
<path d="M98.5076 312.3L102.756 319.703L99.7671 318.566L98.6168 320.917L96.6185 313.131L98.5076 312.3Z" fill="#B75742"/>
<path d="M96.8844 314.307C98.9835 314.455 100.811 312.82 100.965 310.657C101.119 308.494 99.5404 306.618 97.4385 306.47C95.3395 306.322 93.5119 307.956 93.358 310.12C93.2041 312.283 94.7826 314.158 96.8844 314.307Z" fill="#F47458"/>
<path d="M71.4939 146.333L96.6827 123.856C98.32 122.395 97.6399 119.389 95.3813 118.11L75.2778 106.728C73.9904 106 72.5407 106.067 71.6087 106.901L46.4199 129.378C44.7826 130.839 45.4627 133.842 47.7213 135.121L67.8247 146.504C69.1121 147.234 70.5619 147.167 71.4939 146.333" fill="#9BC1F9"/>
<path d="M72.6891 128.452L74.7882 111.184C74.8694 110.523 74.388 109.815 73.7135 109.605C73.039 109.395 72.426 109.762 72.3448 110.422L70.4137 126.314L51.3121 130.932C50.6908 131.083 50.4025 131.754 50.6712 132.432C50.9399 133.109 51.6648 133.537 52.2889 133.386L72.6891 128.452" fill="white"/>
<path d="M401.616 49.3504L399.014 54.5029L393.131 54.3126L390.62 60.2907L384.418 58.1581L381.281 64.7939L375.328 63.5317L371.267 69.4259L373.497 70.9624L376.534 66.5572L382.817 67.8894L385.831 61.5082L392.137 63.6772L394.908 57.0805L400.651 57.2653L403.066 52.4906L406.811 53.403L407.452 50.7693L401.616 49.3504" fill="#F7CC7F"/>
<path d="M86.6018 181.111L81.2561 183.283L76.946 179.275L71.1246 182.135L67.85 176.451L61.1246 179.395L57.4638 174.534L50.5312 176.308L51.2029 178.93L56.3863 177.607L60.2486 182.737L66.7137 179.907L70.0443 185.687L76.4674 182.53L80.6768 186.442L85.6306 184.43L87.8584 187.579L90.0695 186.014L86.6018 181.111Z" fill="#50BFA5"/>
</svg>
