<svg width="1229" height="901" viewBox="0 0 1229 901" fill="none" xmlns="http://www.w3.org/2000/svg">
<path d="M761.644 171.514L771.283 174.471L777.753 159.49L792.376 162.082L799.051 151.659L804.331 155.042L795.401 168.978L781.541 166.523L774.81 182.109L760.304 177.654L761.644 171.514" fill="#50BFA5"/>
<path d="M143.642 710.317L153.28 713.273L159.75 698.293L174.373 700.884L181.049 690.462L186.322 693.844L177.398 707.773L163.538 705.326L156.807 720.911L142.301 716.456L143.642 710.317" fill="#50BFA5"/>
<path d="M821.024 887.672C821.024 887.672 872.449 713.376 876.574 674.931C880.699 636.479 851.941 648.393 851.941 648.393C851.941 648.393 876.134 575.133 858.644 557.746C841.147 540.359 825.369 572.768 825.369 572.768C825.369 572.768 820.075 483.833 801.424 483.805C766.691 483.743 767.371 580.791 767.371 580.791C767.371 580.791 758.51 542.8 739.906 553.216C711.856 568.925 752.081 645.073 752.081 645.073C752.081 645.073 716.338 645.093 703.784 663.12C681.255 695.453 821.024 887.672 821.024 887.672Z" fill="#50BFA5"/>
<path d="M804.215 864.606C804.215 864.606 952.461 839.815 984.705 813.545C1016.95 787.276 985.035 775.437 985.035 775.437C985.035 775.437 1059.5 737.26 1058.65 711.3C1057.78 685.34 1020.78 698.54 1020.78 698.54C1020.78 698.54 1083.53 626.985 1068.68 613.393C1041.01 588.086 968.466 662.467 968.466 662.467C968.466 662.467 990.005 627.095 967.325 621.492C933.108 613.056 907.863 700.273 907.863 700.273C907.863 700.273 914.277 665.829 890.689 670.421C848.359 678.651 804.215 864.606 804.215 864.606" fill="#50BFA5"/>
<path d="M890.689 670.421C914.332 666.145 907.863 700.273 907.863 700.273C907.863 700.273 933.108 613.056 967.325 621.492C990.005 627.095 968.466 662.467 968.466 662.467C968.466 662.467 1041.01 588.086 1068.68 613.393L804.71 864.648C809.412 840.647 851.04 677.585 890.689 670.421" fill="#3C8F7C"/>
<path d="M762.036 885.052C762.036 885.052 840.109 805.66 879.42 797.389C918.739 789.125 911.664 817.093 911.664 817.093C911.664 817.093 989.668 748.879 1007.75 765.406C1025.82 781.934 1006.27 797.891 1006.27 797.891C1006.27 797.891 1071.25 786.382 1080.54 807.701C1094.84 840.461 987.977 858.295 987.977 858.295C987.977 858.295 1032.76 861.402 1022.37 881.945C1006.71 912.924 762.036 885.052 762.036 885.052Z" fill="#355389"/>
<path d="M1080.54 807.702C1071.25 786.382 1006.27 797.891 1006.27 797.891C1006.27 797.891 1025.82 781.934 1007.75 765.407C989.669 748.879 914.091 807.819 914.091 807.819C914.091 807.819 931.911 773.753 892.6 782.024C853.282 790.294 762.036 885.053 762.036 885.053L1080.54 807.702Z" fill="#466EB6"/>
<path d="M637.743 66.216C664.026 70.5335 671.829 105.026 649.98 120.453C646.055 123.224 643.339 127.39 642.184 132.058L638.21 148.098C637.11 152.518 632.807 155.358 628.31 154.622L618.355 152.979C613.859 152.243 610.683 148.173 611.068 143.636C612.449 127.067 614.154 121.058 608.771 113.674C593.021 92.0662 611.459 61.8848 637.743 66.216Z" fill="#F7CC7F"/>
<path d="M622.79 89.3923C623.608 91.2761 623.298 93.6823 623.106 96.453C620.954 95.2292 618.458 93.6961 617.647 91.4548C617.076 89.8804 617.716 87.6598 619.318 87.2473C619.496 87.206 622.212 88.0723 622.79 89.3923V89.3923ZM647.148 99.5673C645.807 101.004 643.566 101.644 640.293 101.492C640.857 99.0792 641.696 96.9136 643.353 95.3736C647.093 91.8948 649.389 97.1473 647.148 99.5673ZM635.061 136.335C636.773 122.145 639.173 107.157 639.991 102.909C655.054 103.74 649.327 87.8661 642.377 94.3217C640.397 96.1573 639.461 98.653 638.843 101.389C633.845 100.935 628.95 99.5124 624.495 97.2092C624.735 93.7098 625.079 91.056 624.103 88.8148C622.625 85.4323 618.341 84.511 616.595 87.811C615.942 89.0485 615.825 90.6298 616.299 91.9429C617.31 94.741 620.349 96.5905 623.003 98.0342C622.205 109.316 621.112 120.687 619.73 131.88L621.146 132.059C622.508 121.045 623.594 109.859 624.385 98.7561C628.812 100.956 633.625 102.338 638.554 102.799C637.523 108.237 635.247 122.839 633.638 136.163L635.061 136.335" fill="#FAE0B2"/>
<path d="M642.301 131.659C642.267 131.79 642.218 131.921 642.184 132.058L638.21 148.098C637.11 152.518 632.807 155.358 628.31 154.622L618.355 152.979C613.859 152.243 610.683 148.173 611.068 143.636C611.68 136.266 612.36 130.986 612.45 126.751L642.301 131.659" fill="#96D9C9"/>
<path d="M657.226 54.2332L665.085 39.885C665.841 38.5031 665.332 36.7568 663.943 36.0006C662.555 35.2375 660.815 35.7462 660.052 37.135L652.194 51.4763C651.438 52.8651 651.946 54.6113 653.335 55.3676C654.731 56.1307 656.47 55.6151 657.226 54.2332Z" fill="#FAE0B2"/>
<path d="M674.4 88.9316L691.533 87.4329C693.107 87.2954 694.276 85.9066 694.132 84.3254C693.994 82.751 692.605 81.5822 691.031 81.7197L673.898 83.2185C672.324 83.356 671.155 84.7447 671.293 86.326C671.43 87.9004 672.819 89.0691 674.4 88.9316Z" fill="#FAE0B2"/>
<path d="M691.382 141.443C692.496 140.315 692.489 138.507 691.361 137.393C687.147 133.234 682.52 129.453 677.597 126.166C676.284 125.286 674.503 125.637 673.623 126.957C672.743 128.27 673.094 130.051 674.414 130.931C679.034 134.018 683.379 137.565 687.332 141.47C688.453 142.577 690.268 142.577 691.382 141.443" fill="#FAE0B2"/>
<path d="M614.904 53.4563C616.43 53.0507 617.338 51.4763 616.932 49.9501C614.993 42.6901 613.804 35.1963 613.398 27.6956C613.309 26.1144 611.961 24.8975 610.38 24.9869C608.799 25.0694 607.589 26.4169 607.671 27.9981C608.098 35.9044 609.349 43.7832 611.391 51.4282C611.803 52.9682 613.385 53.862 614.904 53.4563" fill="#FAE0B2"/>
<path d="M597.263 75.4769C597.716 73.9575 596.864 72.3625 595.344 71.9019L577.538 66.5394C576.019 66.0787 574.424 66.9381 573.963 68.4575C573.509 69.97 574.369 71.5719 575.881 72.0256L593.688 77.3951C595.2 77.8488 596.802 76.9963 597.263 75.4769Z" fill="#FAE0B2"/>
<path d="M568.009 122.86C568.264 122.86 568.525 122.825 568.786 122.756C574.96 121.017 580.955 118.611 586.62 115.606C588.016 114.864 588.545 113.125 587.802 111.729C587.06 110.333 585.328 109.804 583.932 110.546C578.631 113.358 573.014 115.613 567.232 117.236C565.713 117.662 564.826 119.243 565.252 120.77C565.61 122.035 566.758 122.86 568.009 122.86" fill="#FAE0B2"/>
<path d="M307.178 249.567L316.163 228.316L338.755 223.676C341.326 223.146 342.178 219.894 340.192 218.176L322.763 203.064L325.335 180.143C325.623 177.53 322.798 175.722 320.543 177.077L300.791 188.984L279.781 179.455C277.388 178.376 274.79 180.5 275.388 183.065L280.606 205.532L265.054 222.569C263.281 224.507 264.505 227.635 267.124 227.862L290.107 229.842L301.499 249.897C302.798 252.179 306.153 251.98 307.178 249.567Z" fill="#F7CC7F"/>
<path d="M164.157 176.671L167.848 191.541L192.44 188.241L200.519 209.32L219.322 209.863L219.047 219.378L193.905 218.657L186.239 198.685L160.664 202.115L155.109 179.73L164.157 176.671" fill="#F48C7F"/>
<path d="M383.215 889.625H815.414C831.921 889.625 845.3 875.744 845.3 858.625V840.186C845.3 823.067 831.921 809.187 815.414 809.187H383.215C402.981 831.599 403.325 865.851 384.006 888.69L383.215 889.625Z" fill="#B75742"/>
<path d="M389.884 818.406H629.609C646.116 818.406 659.495 832.287 659.495 849.406C659.495 866.531 646.116 880.405 629.609 880.405H389.863C401.07 861.389 401.049 837.374 389.884 818.406Z" fill="#FAE0B2"/>
<path d="M535.051 753.32C534.425 752.145 535.381 750.776 536.831 750.776H765.522C783.452 750.776 797.979 763.853 797.979 779.988C797.979 796.117 783.452 809.2 765.522 809.2H536.769C535.312 809.2 534.349 807.825 534.989 806.643C544.043 789.758 544.023 770.13 535.051 753.32Z" fill="#86B1F2"/>
<path d="M536.494 756.215H649.836C670.873 756.215 687.923 767.174 687.923 780.69C687.923 794.213 670.873 805.172 649.836 805.172H535.752C543.548 789.593 543.761 771.856 536.494 756.215" fill="#F7CC7F"/>
<path d="M565.768 767.819H580.529C583.698 767.819 586.276 768.885 586.276 770.198V770.411H565.768V767.819" fill="#B75742"/>
<path d="M553.173 773.787C553.173 770.487 557.03 767.82 561.787 767.82H580.728C577.119 767.82 574.197 769.848 574.197 772.344L574.286 836.343L563.822 828.114L553.152 836.343L553.173 773.787" fill="#F47458"/>
<path d="M577.098 748.673H710.164C721.962 748.673 731.525 737.315 731.525 723.311C731.525 709.306 721.962 697.956 710.164 697.956H577.098C587.266 712.015 587.665 732.633 578.047 747.229L577.098 748.673Z" fill="#FAE0B2"/>
<path d="M731.511 723.311C731.511 709.306 721.721 697.956 709.642 697.956H574.561C573.929 697.956 573.42 697.358 573.427 696.629C573.434 695.907 573.942 695.33 574.561 695.33H788.856C802.179 695.33 812.987 707.856 812.987 723.311C812.987 738.773 802.179 751.299 788.856 751.299H574.561C573.942 751.299 573.434 750.715 573.427 750C573.42 749.264 573.935 748.673 574.561 748.673H709.642C721.721 748.673 731.511 737.315 731.511 723.311" fill="#466EB6"/>
<path d="M600.336 710.413H615.096C618.266 710.413 620.844 711.465 620.844 712.751V712.964H600.336V710.413Z" fill="#184655"/>
<path d="M587.741 716.271C587.741 713.039 591.597 710.413 596.355 710.413H615.296C611.686 710.413 608.764 712.407 608.764 714.854L608.854 777.617L598.39 769.545L587.72 777.617L587.741 716.271" fill="#3C8F7C"/>
<path d="M365.086 322.751L345.444 317.581L358.754 495.163L382.322 495.947L370.435 329.2C370.215 326.127 368.063 323.535 365.086 322.751" fill="#184655"/>
<path d="M356.994 500.223C357.434 500.264 357.881 500.257 358.342 500.202C362.24 499.742 365.128 495.864 364.791 491.54L351.714 324.559C351.377 320.235 347.94 317.1 344.035 317.56C340.137 318.021 337.249 321.899 337.586 326.23L350.662 493.21C350.965 497.026 353.681 499.921 356.994 500.223" fill="#F7CC7F"/>
<path d="M537.787 509.119C537.78 509.243 537.773 509.36 537.759 509.484C537.147 516.276 531.881 521.364 526.01 520.834L360.109 505.984C354.23 505.462 349.968 499.529 350.58 492.736C350.607 492.447 350.642 492.166 350.69 491.884L537.787 509.119Z" fill="#F7CC7F"/>
<path d="M422.266 688.475C433.128 694.497 466.335 683.937 466.335 682.982C466.809 692.057 503.515 780.882 503.515 780.882L503.487 808.21C503.487 808.21 427.855 811.813 428.941 805.13C430.028 798.448 434.098 802.793 449.182 790.17C450.522 789.05 471.704 784.134 465.977 771.594C454.427 746.342 429.911 704.239 422.266 688.475Z" fill="#F7A491"/>
<path d="M505.976 809.187L423.18 809.208C420.196 808.905 419.495 806.471 420.554 804.993C422.726 801.954 438.594 794.777 449.257 790.019C467.833 792.185 500.49 785.042 503.48 780.807C511.345 791.339 507.64 808.843 505.976 809.187" fill="#3C8F7C"/>
<path d="M524.133 624.702C525.253 621.34 452.853 590.616 449.614 594.129C443.881 600.337 488.788 716.896 488.788 716.896L437.191 732.661C437.191 732.661 383.559 598 385.8 573.366C388.035 548.74 414.902 520.752 473.12 538.661C531.338 556.578 524.133 624.702 524.133 624.702" fill="#355389"/>
<path d="M374.23 703.793C386.453 701.572 402.294 700.94 414.978 700.72C413.479 712.008 406.226 769.903 407.553 773.464C412.922 787.874 424.844 794.619 424.844 794.619C424.844 794.619 368.627 845.343 365.237 839.485C361.841 833.628 367.74 834.411 371.411 815.086C371.734 813.367 379.867 786.389 380.369 771.842C381.332 744.094 374.649 719.206 374.23 703.793" fill="#F7A491"/>
<path d="M392.27 514.386C400.114 510.205 420.471 510.054 442.856 511.505C486.506 514.337 529.592 522.924 571.11 536.681L598.892 545.88L598.803 517.397C598.803 517.397 687.188 502.609 690.268 524.512C694.895 557.499 689.147 624.475 659.702 639.422C568.229 685.856 440.044 565.453 439.577 581.204C438.958 602.358 421.124 681.084 416.559 715.549C403.882 715.769 382.095 715.762 372.642 713.589C370.806 646.07 369.947 526.3 392.27 514.386" fill="#466EB6"/>
<path d="M426.563 795.808L363.36 846.284C360.858 847.948 358.782 846.511 358.658 844.696C358.41 840.963 366.138 825.357 371.37 814.92C387.114 804.821 407.883 778.496 407.505 773.326C414.174 778.95 427.628 794.481 426.563 795.808Z" fill="#3C8F7C"/>
<path d="M569.604 239.048C571.722 219.64 573.963 200.163 590.044 185.938C603.065 174.43 619.613 172.477 635.983 178.637C682.355 196.086 658.464 237.267 717.589 278.792C735.966 291.697 756.213 300.524 770.046 317.898C789.413 342.221 782.098 371.468 764.456 391C680.017 484.445 585.754 358.247 578.982 327.949C573.949 305.412 568.236 251.54 569.604 239.048" fill="#13375B"/>
<path d="M586.751 348.168C593.646 335.456 600.748 325.363 600.748 325.363C607.905 312.645 626.385 306.217 626.385 306.217C626.385 306.217 632.566 306.34 639.668 306.691C640.108 307.867 640.555 308.705 641.008 309.042C643.676 311.043 658.966 308.465 668.839 315.168C701.942 343.541 692.784 481.076 690.186 524.512L589.37 525.468C589.37 525.468 602.082 432.002 581.601 407.988C567.336 391.267 576.514 367.033 586.751 348.168Z" fill="#50BFA5"/>
<path d="M632.188 259.687C632.188 259.687 637.729 299.259 641.6 308.877C645.47 318.496 620.322 339.059 599.394 345.308C578.466 351.551 605.788 324.064 604.921 313.779C604.055 303.501 600.246 254.826 600.246 254.826L632.188 259.687Z" fill="#F7A491"/>
<path d="M601.305 268.782C600.693 260.731 600.246 254.826 600.246 254.826L632.188 259.686C632.188 259.686 632.992 264.334 633.886 270.907C620.933 278.421 609.294 276.049 601.305 268.782" fill="#F47458"/>
<path d="M622.171 187.402C622.171 187.402 634.759 190.242 642.535 202.101C650.304 213.961 655.638 248.886 630.036 265.186C604.44 281.487 584.53 258.428 584.2 235.94C583.87 213.445 588.689 183.436 622.171 187.402Z" fill="#F7A491"/>
<path d="M578.336 228.9C580.522 234.324 584.853 237.693 588.016 236.421C591.178 235.149 591.969 229.718 589.783 224.294C587.603 218.862 583.272 215.494 580.109 216.772C576.947 218.044 576.156 223.476 578.336 228.9Z" fill="#F7A491"/>
<path d="M618.396 186.667C618.396 186.667 634.443 222.665 648.543 225.875C662.644 229.093 662.438 247.208 662.438 247.208C662.438 247.208 662.128 205.374 648.908 195.783C635.694 186.186 618.396 186.667 618.396 186.667" fill="#13375B"/>
<path d="M642.94 233.362C641.084 239.206 642.782 244.96 646.735 246.218C650.688 247.469 655.398 243.75 657.254 237.906C659.11 232.056 657.412 226.301 653.459 225.043C649.506 223.792 644.797 227.511 642.94 233.362Z" fill="#F7A491"/>
<path d="M462.629 493.252C468.679 491.065 477.678 490.79 477.527 489.993C476.922 486.761 450.199 497.129 453.808 492.413C455.823 489.786 475.815 480.485 480.683 482.018C485.399 483.51 516.364 492.2 516.364 492.2L601.003 472.365C601.003 472.365 622.363 423.821 624.453 382.11C642.108 384.502 654.133 388.861 669.478 397.379C662.08 437.268 644.088 501.921 624.199 514.055C615.839 519.157 515.945 507.943 515.945 507.943C515.945 507.943 493.931 506.39 490.335 505.008C487.606 503.956 480.58 500.003 476.764 498.917C468.074 496.462 452.605 502.636 452.557 500.931C452.523 499.693 456.448 495.486 462.629 493.252" fill="#F7A491"/>
<path d="M623.931 337.546C624.749 324.717 629.61 312.322 643.263 308.334C651.727 305.859 661.221 308.224 667.986 313.752C676.03 320.324 678.278 330.864 678.237 340.839C678.154 363.499 676.607 386.984 672.468 409.294C657.123 400.776 639.207 395.654 621.545 393.261C621.552 393.131 622.858 354.507 623.931 337.546" fill="#96D9C9"/>
<path d="M886.165 361.767L1017.38 337.333C1020.01 336.838 1021.75 334.308 1021.27 331.668L1004.83 243.399C1004.33 240.766 1001.8 239.027 999.163 239.515L867.953 263.949C865.313 264.437 863.574 266.974 864.069 269.607L880.507 357.882C880.995 360.516 883.532 362.255 886.165 361.767Z" fill="#F7CC7F"/>
<path d="M948.624 260.855L988.568 253.417C991.201 252.922 992.941 250.392 992.453 247.752L989.95 234.325C989.455 231.685 986.925 229.945 984.285 230.44L944.348 237.879C941.708 238.367 939.976 240.904 940.464 243.537L942.966 256.971C943.454 259.604 945.991 261.344 948.624 260.855Z" fill="#F7CC7F"/>
<path d="M880.19 358.391C880.871 360.804 883.284 362.303 885.752 361.842L1017.82 337.25C1020.28 336.79 1021.99 334.542 1021.77 332.053L1014.86 252.928C1014.73 251.567 1014.05 250.316 1012.96 249.484C1011.87 248.659 1010.48 248.329 1009.13 248.576L862.412 275.898C861.071 276.152 859.895 276.95 859.18 278.111C858.458 279.273 858.259 280.676 858.63 281.989L880.19 358.391Z" fill="#FAE0B2"/>
<path d="M278.351 69.2688L300.818 75.4082L305.658 48.1763L298.309 46.87L294.899 66.0444L280.317 62.0638L278.351 69.2688" fill="#50BFA5"/>
<path d="M994.199 443.222C988.568 442.762 979.933 445.244 976.056 447.87C975.478 448.413 971.023 450.187 966.39 457.859L967.434 458.581C972.316 453.466 975.602 452.318 979.521 451.142C985.97 449.485 992.473 450.723 993.003 451.012L994.199 443.222Z" fill="#355389"/>
<path d="M966.912 458.216C966.912 458.216 1001.2 463.936 998.001 490.722C994.804 517.507 958.634 538.338 926.349 521.776C882.927 499.494 900.08 442.837 930.99 438.458C961.893 434.078 966.912 458.216 966.912 458.216" fill="#F47458"/>
<path d="M952.365 446.426C952.365 446.426 943.42 437.241 923.826 445.594C904.226 453.947 902.809 492.908 920.286 490.646C937.769 488.384 966.342 452.043 952.365 446.426" fill="#F48C7F"/>
<path d="M716.517 90.6091L857.524 140.907C862.068 142.529 867.066 140.157 868.689 135.613L894.711 62.6552C896.333 58.1108 893.961 53.1058 889.417 51.4902L748.41 1.18563C743.866 -0.430006 738.868 1.935 737.245 6.47939L711.223 79.444C709.601 83.9884 711.966 88.9866 716.517 90.6091" fill="#86B1F2"/>
<path d="M809.976 71.854C804.792 86.3878 812.368 102.379 826.909 107.563C841.443 112.747 857.427 105.17 862.618 90.6297C867.802 76.0959 860.219 60.1114 845.685 54.9208C831.151 49.737 815.16 57.3202 809.976 71.854Z" fill="white"/>
<path d="M832.292 67.9423C830.759 72.2323 833 76.9417 837.283 78.4749C841.573 80.0011 846.283 77.7667 847.816 73.4836C849.342 69.1935 847.108 64.4773 842.818 62.951C838.535 61.4247 833.818 63.6592 832.292 67.9423Z" fill="#86B1F2"/>
<path d="M818.865 90.9182L843.664 99.7664L844.66 96.982C846.469 91.9082 843.822 86.3188 838.741 84.5107L832.334 82.2213C827.253 80.4132 821.67 83.0601 819.855 88.1407L818.865 90.9182" fill="#86B1F2"/>
<path d="M806.504 56.5984C808.003 56.5984 809.35 55.6496 809.859 54.2334C810.519 52.384 809.549 50.3421 807.7 49.6821L746.059 27.6957C745.674 27.5582 745.268 27.4826 744.862 27.4826C743.357 27.4826 742.009 28.4383 741.507 29.8545C740.847 31.7039 741.81 33.7458 743.666 34.4058L805.301 56.3921C805.693 56.5296 806.091 56.5984 806.504 56.5984Z" fill="white"/>
<path d="M789.86 71.9712C791.365 71.9712 792.713 71.0156 793.222 69.5993C793.882 67.7499 792.912 65.708 791.056 65.048L742.917 47.8742C742.532 47.7367 742.126 47.668 741.721 47.668C740.215 47.668 738.868 48.6168 738.366 50.033C738.043 50.9268 738.091 51.8961 738.496 52.7555C738.909 53.6149 739.624 54.268 740.525 54.5843L788.663 71.7581C789.048 71.8956 789.454 71.9712 789.86 71.9712Z" fill="white"/>
<path d="M497.423 640.941H837.902C848.476 640.941 857.042 649.514 857.042 660.088V676.189C857.042 686.763 848.476 695.336 837.902 695.336H497.423L497.602 695.151C512.163 679.991 512.088 656.011 497.423 640.941Z" fill="#F47458"/>
<path d="M503.446 648.992H685.462C696.036 648.992 704.609 657.565 704.609 668.139C704.609 678.712 696.036 687.286 685.462 687.286H503.453C510.142 675.426 510.135 660.837 503.446 648.992Z" fill="#FAE0B2"/>
<path d="M218.758 642.508L244.567 577.759C245.866 574.5 244.278 570.809 241.02 569.509L148.152 532.494C144.893 531.195 141.201 532.783 139.902 536.042L114.093 600.791C112.793 604.049 114.382 607.741 117.64 609.041L210.508 646.056C213.767 647.355 217.459 645.767 218.758 642.508Z" fill="#FAE0B2"/>
<path d="M131.15 605.067L154.346 546.884C154.717 545.949 154.264 544.89 153.329 544.519C152.394 544.148 151.335 544.601 150.957 545.536L127.767 603.72C127.396 604.655 127.85 605.713 128.785 606.085C129.72 606.456 130.778 606.002 131.15 605.067" fill="#466EB6"/>
<path d="M142.205 597.402L161.242 549.634C161.613 548.699 161.159 547.64 160.224 547.269C159.289 546.891 158.23 547.352 157.859 548.287L138.815 596.054C138.444 596.989 138.898 598.048 139.833 598.426C140.768 598.797 141.827 598.344 142.205 597.402" fill="#466EB6"/>
<path d="M144.948 610.567L168.144 552.384C168.515 551.449 168.061 550.39 167.126 550.019C166.191 549.641 165.126 550.102 164.755 551.037L141.565 609.22C141.194 610.155 141.648 611.214 142.583 611.585C143.518 611.956 144.576 611.502 144.948 610.567" fill="#466EB6"/>
<path d="M157.137 600.041L175.04 555.134C175.411 554.199 174.957 553.14 174.022 552.769C173.087 552.39 172.029 552.851 171.657 553.786L153.755 598.694C153.384 599.629 153.837 600.687 154.772 601.059C155.707 601.43 156.766 600.976 157.137 600.041Z" fill="#466EB6"/>
<path d="M131.775 540.676L132.243 539.507C132.415 539.074 132.882 538.854 133.288 539.019L142.102 542.532C142.507 542.69 142.7 543.178 142.528 543.605L142.06 544.78C141.888 545.206 141.421 545.426 141.015 545.268L132.201 541.755C131.796 541.59 131.603 541.109 131.775 540.676" fill="#355389"/>
<path d="M129.775 545.688L130.242 544.519C130.414 544.086 130.882 543.866 131.294 544.031L140.108 547.544C140.514 547.702 140.699 548.183 140.527 548.616L140.06 549.792C139.888 550.218 139.42 550.438 139.015 550.28L130.201 546.767C129.795 546.602 129.603 546.121 129.775 545.688" fill="#355389"/>
<path d="M127.781 550.699L128.248 549.531C128.42 549.098 128.888 548.878 129.293 549.043L138.107 552.556C138.513 552.714 138.705 553.195 138.533 553.628L138.066 554.804C137.894 555.23 137.426 555.45 137.021 555.292L128.2 551.772C127.801 551.614 127.609 551.133 127.781 550.699" fill="#355389"/>
<path d="M125.78 555.711L126.248 554.543C126.42 554.11 126.887 553.89 127.293 554.055L136.106 557.568C136.512 557.726 136.705 558.207 136.533 558.64L136.065 559.816C135.893 560.242 135.426 560.462 135.02 560.297L126.206 556.784C125.801 556.626 125.608 556.145 125.78 555.711Z" fill="#355389"/>
<path d="M123.786 560.723L124.254 559.555C124.426 559.121 124.893 558.901 125.299 559.066L134.113 562.58C134.518 562.738 134.704 563.219 134.539 563.652L134.072 564.821C133.9 565.254 133.425 565.474 133.02 565.309L124.206 561.796C123.8 561.638 123.615 561.156 123.786 560.723" fill="#355389"/>
<path d="M121.786 565.735L122.253 564.567C122.425 564.133 122.893 563.913 123.298 564.078L132.112 567.592C132.518 567.75 132.71 568.231 132.538 568.664L132.071 569.833C131.899 570.266 131.431 570.486 131.026 570.321L122.212 566.808C121.806 566.65 121.614 566.168 121.786 565.735Z" fill="#355389"/>
<path d="M119.792 570.747L120.26 569.579C120.432 569.145 120.899 568.925 121.305 569.09L130.119 572.603C130.524 572.762 130.71 573.243 130.538 573.676L130.071 574.845C129.899 575.278 129.431 575.498 129.025 575.333L120.212 571.82C119.806 571.662 119.62 571.18 119.792 570.747Z" fill="#355389"/>
<path d="M117.791 575.759L118.259 574.59C118.431 574.157 118.898 573.937 119.304 574.102L128.118 577.615C128.523 577.773 128.716 578.255 128.544 578.688L128.077 579.856C127.905 580.29 127.437 580.51 127.031 580.345L118.218 576.831C117.812 576.673 117.619 576.192 117.791 575.759Z" fill="#355389"/>
<path d="M115.798 580.771L116.265 579.602C116.437 579.169 116.905 578.949 117.31 579.114L126.124 582.627C126.53 582.785 126.715 583.266 126.543 583.7L126.076 584.868C125.904 585.302 125.437 585.522 125.031 585.357L116.217 581.843C115.812 581.685 115.626 581.204 115.798 580.771Z" fill="#355389"/>
<path d="M113.797 585.783L114.264 584.614C114.436 584.181 114.904 583.961 115.309 584.126L124.123 587.639C124.529 587.797 124.721 588.278 124.549 588.712L124.082 589.88C123.91 590.313 123.442 590.533 123.037 590.368L114.223 586.855C113.818 586.697 113.625 586.216 113.797 585.783Z" fill="#355389"/>
<path d="M111.803 590.794L112.27 589.619C112.435 589.193 112.903 588.973 113.315 589.138L122.129 592.651C122.535 592.809 122.721 593.29 122.549 593.723L122.081 594.892C121.909 595.325 121.442 595.545 121.036 595.38L112.222 591.867C111.817 591.709 111.631 591.228 111.803 590.794Z" fill="#355389"/>
<path d="M109.803 595.807L110.27 594.631C110.442 594.205 110.91 593.985 111.315 594.143L120.129 597.663C120.535 597.821 120.727 598.302 120.555 598.736L120.088 599.904C119.916 600.337 119.448 600.557 119.043 600.392L110.229 596.879C109.823 596.714 109.631 596.24 109.803 595.807" fill="#355389"/>
<path d="M85.4512 590.65L122.308 643.134C122.391 643.251 122.459 643.382 122.501 643.519L126.261 655.049C126.695 656.389 125.148 657.503 124.02 656.651L114.154 649.212C114.031 649.122 113.927 649.012 113.838 648.889L76.8848 596.267C76.4104 595.594 76.5961 594.665 77.2904 594.225L83.4918 590.259C84.1449 589.846 85.0043 590.018 85.4512 590.65" fill="#B75742"/>
<path d="M113.879 648.944L113.969 649.074L123.491 656.252L126.083 654.513L122.521 643.581C119.737 645.108 116.396 646.675 113.879 648.944" fill="#F7CC7F"/>
<path d="M458.868 22.45C453.561 26.685 444.327 40.3113 432.557 49.8745C425.669 55.4707 420.361 54.0476 411.568 55.1132C369.85 60.1526 381.153 68.6776 376.148 69.5164C377.571 72.7889 390.572 100.42 392.998 106.002C395.24 111.152 399.11 113.455 404.72 112.685C413.349 111.488 422.052 110.602 430.55 108.759C452.323 104.036 464.437 93.1459 480.043 79.9252C484.182 76.412 485.199 72.0395 483.054 67.0757C473.065 43.9963 459.948 24.5743 458.868 22.45" fill="#466EB6"/>
<path d="M371.631 102.757C371.817 111.846 371.123 113.668 375.028 112.293C377.379 111.461 379.654 110.381 381.875 109.233C383.436 108.429 383.498 107.363 382.226 106.085C380.376 104.221 378.472 102.413 376.622 100.605C377.977 97.0371 376.423 92.8915 373.089 90.9389C372.408 90.5402 372.903 91.3858 367.094 78.0139C386.309 75.642 399.867 74.0539 423.304 71.1732C429.567 70.4032 435.143 67.9626 439.99 63.9063C456.737 49.9019 473.478 35.8906 490.205 21.8724C492.474 19.968 492.762 17.1768 490.961 15.0317C489.579 13.3955 487.757 13.313 485.791 13.5605C480.442 14.2343 427.993 20.7449 422.664 21.3705C415.666 22.1887 409.506 24.8218 404.095 29.3525C387.65 43.13 371.157 56.8525 354.691 70.5957C352.429 72.4864 351.817 74.2189 352.615 76.3158C353.488 78.6189 355.392 79.7189 358.266 79.1001C360.349 78.6464 361.264 79.2789 361.979 81.2039C365.21 89.8939 367.465 91.8189 366.688 94.9952C366.083 97.4496 368.998 101.691 371.631 102.757" fill="#86B1F2"/>
<path d="M284.614 720.361L275.057 729.478C252.446 751.045 234.007 776.592 220.669 804.842L219.205 807.942C219.205 807.942 194.173 810.156 190.68 787.523C212.639 762.732 230.714 736.256 245.632 706.811L250.156 696.23L284.614 720.361Z" fill="#466EB6"/>
<path d="M250.184 696.203C248.953 697.963 255.663 704.769 265.178 711.396C274.686 718.031 283.438 722.06 284.662 720.3C285.893 718.54 279.134 711.651 269.626 705.023C260.118 698.389 251.407 694.436 250.184 696.203Z" fill="#86B1F2"/>
<path d="M250.142 696.264L250.17 696.23C250.17 696.23 269.227 712.359 277.079 714.002L274.652 717.302C271.785 715.755 268.526 713.741 265.178 711.396C255.773 704.844 249.111 698.121 250.142 696.264" fill="#355389"/>
<path d="M224.684 743.09C224.65 745.868 225.715 757.871 245.68 762.876C244.367 764.664 243.075 766.472 241.81 768.294C229.173 764.554 223.488 758.071 220.93 753.128C220.532 752.351 220.043 751.299 219.72 750.488C221.405 748.04 223.062 745.579 224.684 743.09" fill="#B75742"/>
<path d="M243.886 759.329L273.27 758.277L266.306 764.189L270.465 771.738L242.656 764.65L243.886 759.329" fill="#B75742"/>
<path d="M241.212 766.163L251.648 784.347L244.306 781.556L241.48 787.331L236.571 768.205L241.212 766.163Z" fill="#B75742"/>
<path d="M237.225 771.093C242.381 771.457 246.87 767.442 247.248 762.127C247.626 756.813 243.749 752.207 238.586 751.842C233.429 751.478 228.94 755.493 228.562 760.807C228.184 766.122 232.061 770.728 237.225 771.093Z" fill="#F47458"/>
<path d="M174.854 358.474L236.729 303.26C240.751 299.672 239.081 292.288 233.533 289.146L184.149 261.185C180.987 259.398 177.426 259.563 175.136 261.611L113.261 316.825C109.239 320.413 110.91 327.79 116.458 330.932L165.841 358.893C169.004 360.687 172.565 360.522 174.854 358.474" fill="#9BC1F9"/>
<path d="M177.79 314.549L182.946 272.13C183.145 270.508 181.963 268.768 180.306 268.253C178.649 267.737 177.143 268.638 176.944 270.26L172.2 309.297L125.278 320.64C123.752 321.012 123.044 322.662 123.704 324.325C124.364 325.989 126.144 327.041 127.677 326.67L177.79 314.549" fill="white"/>
<path d="M985.784 120.24L979.39 132.897L964.939 132.43L958.772 147.115L943.537 141.876L935.83 158.177L921.207 155.076L911.231 169.555L916.71 173.329L924.17 162.508L939.604 165.781L947.009 150.106L962.498 155.434L969.304 139.229L983.412 139.683L989.345 127.954L998.544 130.195L1000.12 123.726L985.784 120.24" fill="#F7CC7F"/>
<path d="M211.965 443.903L198.834 449.238L188.247 439.393L173.947 446.419L165.903 432.456L149.382 439.689L140.39 427.747L123.36 432.105L125.01 438.547L137.743 435.296L147.23 447.897L163.111 440.947L171.293 455.144L187.071 447.389L197.411 457L209.58 452.057L215.052 459.791L220.484 455.948L211.965 443.903Z" fill="#50BFA5"/>
</svg>
